<svg width="35" height="36" viewBox="0 0 35 36" fill="none" xmlns="http://www.w3.org/2000/svg">
<path d="M2.44433 2.17269H32.6723V28.8097H2.44433V2.17269Z" fill="#D5D9CF"/>
<path d="M32.9586 29.1001H2.15801V1.88766H32.9586V29.1001ZM2.72534 28.5246H32.386V2.4631H2.72534V28.5246Z" fill="#333336"/>
<path d="M30.9438 0.290409H4.0509C1.97773 0.290409 0.28632 2.01135 0.28632 4.10875V27.3684C0.28632 29.4712 1.98303 31.1867 4.0509 31.1867H30.9491C33.0223 31.1867 34.7137 29.4658 34.7137 27.3684V4.10875C34.7137 2.00598 33.017 0.290409 30.9438 0.290409ZM31.1771 25.7442C31.1771 26.7661 30.3552 27.5996 29.3478 27.5996H5.65217C4.64475 27.5996 3.82291 26.7661 3.82291 25.7442V5.73289C3.82291 4.71108 4.64475 3.8775 5.65217 3.8775H29.3478C30.3552 3.8775 31.1771 4.71108 31.1771 5.73289V25.7442Z" fill="#68A240"/>
<path d="M30.9438 31.4771H4.0509C1.81866 31.4771 0 29.6325 0 27.3684V4.10875C0 1.84464 1.81866 0 4.0509 0H30.9491C33.1813 0 35 1.84464 35 4.10875V27.3684C34.9947 29.6325 33.1813 31.4771 30.9438 31.4771ZM4.0509 0.575441C2.13149 0.575441 0.567338 2.16194 0.567338 4.10875V27.3684C0.567338 29.3152 2.13149 30.9017 4.0509 30.9017H30.9491C32.8685 30.9017 34.4327 29.3152 34.4327 27.3684V4.10875C34.4327 2.16194 32.8685 0.575441 30.9491 0.575441H4.0509ZM29.3425 27.8901H5.65217C4.48568 27.8901 3.53659 26.9274 3.53659 25.7442V5.73289C3.53659 4.54975 4.48568 3.58709 5.65217 3.58709H29.3478C30.5143 3.58709 31.4634 4.54975 31.4634 5.73289V25.7442C31.4581 26.9274 30.509 27.8901 29.3425 27.8901ZM5.65217 4.16791C4.79852 4.16791 4.10923 4.87242 4.10923 5.73289V25.7442C4.10923 26.6101 4.80382 27.3092 5.65217 27.3092H29.3478C30.2015 27.3092 30.8908 26.6047 30.8908 25.7442V5.73289C30.8908 4.86704 30.1962 4.16791 29.3478 4.16791H5.65217Z" fill="#333336"/>
<path d="M17.4974 7.08814C17.3383 7.08814 17.211 6.95907 17.211 6.79773V3.8775C17.211 3.71616 17.3383 3.58709 17.4974 3.58709C17.6564 3.58709 17.7837 3.71616 17.7837 3.8775V6.79773C17.7837 6.95907 17.6564 7.08814 17.4974 7.08814ZM17.4974 27.8632C17.3383 27.8632 17.211 27.7341 17.211 27.5728V24.6525C17.211 24.4912 17.3383 24.3621 17.4974 24.3621C17.6564 24.3621 17.7837 24.4912 17.7837 24.6525V27.5728C17.7837 27.7341 17.6564 27.8632 17.4974 27.8632Z" fill="#333336"/>
<path d="M3.91835 15.7359H6.79746H3.91835Z" fill="#68A240"/>
<path d="M6.79746 16.0263H3.91835C3.75928 16.0263 3.63203 15.8972 3.63203 15.7359C3.63203 15.5745 3.75928 15.4455 3.91835 15.4455H6.79746C6.95652 15.4455 7.08378 15.5745 7.08378 15.7359C7.07847 15.8972 6.95122 16.0263 6.79746 16.0263Z" fill="#333336"/>
<path d="M28.298 15.7359H31.1771H28.298Z" fill="#68A240"/>
<path d="M31.1771 16.0263H28.298C28.1389 16.0263 28.0117 15.8972 28.0117 15.7359C28.0117 15.5745 28.1389 15.4455 28.298 15.4455H31.1771C31.3362 15.4455 31.4634 15.5745 31.4634 15.7359C31.4581 15.8972 31.3309 16.0263 31.1771 16.0263Z" fill="#333336"/>
<path d="M14.0244 15.7359C14.0244 16.1985 14.1142 16.6565 14.2888 17.0839C14.4633 17.5113 14.7191 17.8996 15.0416 18.2267C15.3641 18.5538 15.7469 18.8133 16.1683 18.9903C16.5897 19.1673 17.0413 19.2584 17.4974 19.2584C17.9534 19.2584 18.405 19.1673 18.8264 18.9903C19.2478 18.8133 19.6306 18.5538 19.9531 18.2267C20.2756 17.8996 20.5314 17.5113 20.7059 17.0839C20.8805 16.6565 20.9703 16.1985 20.9703 15.7359C20.9703 15.2733 20.8805 14.8152 20.7059 14.3879C20.5314 13.9605 20.2756 13.5722 19.9531 13.2451C19.6306 12.918 19.2478 12.6585 18.8264 12.4815C18.405 12.3044 17.9534 12.2133 17.4974 12.2133C17.0413 12.2133 16.5897 12.3044 16.1683 12.4815C15.7469 12.6585 15.3641 12.918 15.0416 13.2451C14.7191 13.5722 14.4633 13.9605 14.2888 14.3879C14.1142 14.8152 14.0244 15.2733 14.0244 15.7359Z" fill="#FFD632"/>
<path d="M17.4974 19.5488C15.4242 19.5488 13.7434 17.8387 13.7434 15.7413C13.7434 13.6439 15.4295 11.9337 17.4974 11.9337C19.5652 11.9337 21.2513 13.6439 21.2513 15.7413C21.2513 17.8387 19.5705 19.5488 17.4974 19.5488ZM17.4974 12.5037C15.7423 12.5037 14.3107 13.9558 14.3107 15.7359C14.3107 17.516 15.7423 18.968 17.4974 18.968C19.2524 18.968 20.684 17.516 20.684 15.7359C20.684 13.9558 19.2524 12.5037 17.4974 12.5037Z" fill="#333336"/>
<path d="M16.2089 15.7359C16.2089 15.9075 16.2422 16.0774 16.307 16.236C16.3717 16.3945 16.4666 16.5386 16.5863 16.66C16.7059 16.7813 16.848 16.8776 17.0043 16.9432C17.1606 17.0089 17.3281 17.0427 17.4974 17.0427C17.6665 17.0427 17.8341 17.0089 17.9904 16.9432C18.1467 16.8776 18.2888 16.7813 18.4084 16.66C18.5281 16.5386 18.623 16.3945 18.6877 16.236C18.7525 16.0774 18.7858 15.9075 18.7858 15.7359C18.7858 15.3893 18.65 15.0569 18.4084 14.8118C18.1668 14.5667 17.8391 14.429 17.4974 14.429C17.1556 14.429 16.8279 14.5667 16.5863 14.8118C16.3447 15.0569 16.2089 15.3893 16.2089 15.7359Z" fill="#D5D9CF"/>
<path d="M17.4974 17.3331C16.6331 17.3331 15.9279 16.6179 15.9279 15.7413C15.9279 14.8647 16.6331 14.1494 17.4974 14.1494C18.3616 14.1494 19.0668 14.8647 19.0668 15.7413C19.0668 16.6179 18.3616 17.3331 17.4974 17.3331ZM17.4974 14.7194C16.9459 14.7194 16.4952 15.1766 16.4952 15.7359C16.4952 16.2952 16.9459 16.7523 17.4974 16.7523C18.0488 16.7523 18.4995 16.2952 18.4995 15.7359C18.4995 15.1766 18.0488 14.7194 17.4974 14.7194Z" fill="#333336"/>
<path d="M25.5196 16.0263H18.9183C18.7593 16.0263 18.632 15.8972 18.632 15.7359C18.632 15.5745 18.7593 15.4455 18.9183 15.4455H25.5196C25.6787 15.4455 25.8059 15.5745 25.8059 15.7359C25.8006 15.8972 25.6734 16.0263 25.5196 16.0263Z" fill="#333336"/>
<path d="M16.2089 14.4344L8.59491 9.06722L16.2089 14.4344Z" fill="#D5D9CF"/>
<path d="M16.2089 14.7195C16.1506 14.7195 16.0976 14.7033 16.0445 14.6657L8.43054 9.29848C8.30329 9.20705 8.27147 9.02958 8.36161 8.89513C8.45175 8.76606 8.62672 8.73379 8.75928 8.82522L16.3733 14.1924C16.5005 14.2838 16.5323 14.4613 16.4422 14.5958C16.3892 14.6764 16.299 14.7195 16.2089 14.7195Z" fill="#333336"/>
<path d="M28.7858 35.7096H6.29905C5.53022 35.7096 4.97879 34.9621 5.19618 34.2145L6.08166 31.1867H29.0032L29.8887 34.2145C30.106 34.9621 29.5546 35.7096 28.7858 35.7096Z" fill="#FFD632"/>
<path d="M28.7858 36H6.29905C5.84305 36 5.42418 35.7849 5.15376 35.4138C4.88335 35.0427 4.79851 34.5748 4.92577 34.1338L5.86957 30.9017H29.2153L30.1591 34.1338C30.2863 34.5802 30.2068 35.0427 29.9311 35.4138C29.6607 35.7849 29.2418 36 28.7858 36ZM6.29374 31.4771L5.4719 34.2952C5.39236 34.5641 5.44539 34.8437 5.60976 35.0696C5.77412 35.2955 6.02863 35.4192 6.29905 35.4192H28.7858C29.0615 35.4192 29.3107 35.2901 29.4804 35.0696C29.6448 34.8437 29.6925 34.5641 29.6182 34.2952L28.7911 31.4771H6.29374Z" fill="#333336"/>
</svg>
