<svg width="42" height="36" viewBox="0 0 42 36" fill="none" xmlns="http://www.w3.org/2000/svg">
<path d="M39.792 35.295H2.20804C1.37771 35.295 0.704648 34.6217 0.704648 33.7911V2.20886C0.704648 1.37823 1.37771 0.704911 2.20804 0.704911H39.792C40.6223 0.704911 41.2954 1.37823 41.2954 2.20886V33.7911C41.2953 34.6218 40.6223 35.295 39.792 35.295Z" fill="#F1F4FB"/>
<path d="M21 33.0391C27.6422 33.0391 33.0268 27.6525 33.0268 21.0078C33.0268 14.3631 27.6422 8.97649 21 8.97649C14.3578 8.97649 8.97315 14.3631 8.97315 21.0078C8.97315 27.6525 14.3578 33.0391 21 33.0391Z" fill="white"/>
<path d="M9.7248 0.704993H39.7919C40.6222 0.704993 41.2953 1.37831 41.2953 2.20894V3.71288H9.7248V0.704993Z" fill="#D5DCED"/>
<path d="M2.20804 0.704911L3.71142 0.704993V3.7128H0.70473L0.704648 2.20886C0.704648 1.37823 1.37771 0.704911 2.20804 0.704911Z" fill="#FF507D"/>
<path d="M6.71811 0.704993H3.71142V3.7128H6.71811V0.704993Z" fill="#FFDC64"/>
<path d="M9.7248 0.704993H6.71811V3.7128L9.7248 3.71288V0.704993Z" fill="#B4E66E"/>
<path d="M38.2886 0.704993L39.792 0.704911C40.6223 0.704911 41.2954 1.37823 41.2954 2.20886L41.2953 3.71288H38.2887L38.2886 0.704993Z" fill="#C7CFE2"/>
<path d="M14.9866 30.0313C15.8169 30.0313 16.49 29.358 16.49 28.5274C16.49 27.6968 15.8169 27.0234 14.9866 27.0234C14.1563 27.0234 13.4832 27.6968 13.4832 28.5274C13.4832 29.358 14.1563 30.0313 14.9866 30.0313Z" fill="#464655"/>
<path d="M27.7651 30.0313C28.5954 30.0313 29.2685 29.358 29.2685 28.5274C29.2685 27.6968 28.5954 27.0234 27.7651 27.0234C26.9348 27.0234 26.2617 27.6968 26.2617 28.5274C26.2617 29.358 26.9348 30.0313 27.7651 30.0313Z" fill="#464655"/>
<path d="M13.8591 15.7441L16.8249 23.6561C17.0693 24.3078 17.7287 24.7067 18.4191 24.6204L27.9516 23.4284C28.7039 23.3343 29.2685 22.6945 29.2685 21.9361V15.7441H13.8591Z" fill="#D5DCED"/>
<path d="M39.792 0H2.20804C0.990527 0 0 0.990896 0 2.20886V33.7911C0 35.0091 0.990527 36 2.20804 36H39.792C41.0095 36 42 35.0091 42 33.7911V2.20886C42 0.990896 41.0095 0 39.792 0ZM40.5906 2.20886V3.00781H38.9933V1.4099H39.792C40.2323 1.4099 40.5906 1.76835 40.5906 2.20886ZM10.4295 3.00781V1.4099H37.5839V3.00781H10.4295ZM7.42284 3.00781V1.4099H9.02016V3.00781H7.42284ZM4.41607 3.00781V1.4099H6.01338V3.00781H4.41607ZM2.20804 1.4099H3.00669V3.00781H1.40938V2.20886C1.40938 1.76835 1.76769 1.4099 2.20804 1.4099ZM39.792 34.5901H2.20804C1.76761 34.5901 1.40938 34.2317 1.40938 33.7911V4.41779H40.5906V33.7911C40.5906 34.2317 40.2323 34.5901 39.792 34.5901Z" fill="black"/>
<path d="M38.2886 6.0157H3.71142C3.32227 6.0157 3.00669 6.33131 3.00669 6.72069C3.00669 7.11 3.32218 7.42569 3.71142 7.42569H38.2886C38.6777 7.42569 38.9933 7.11008 38.9933 6.72069C38.9933 6.33131 38.6777 6.0157 38.2886 6.0157Z" fill="black"/>
<path d="M29.2684 15.0391H24.7583C24.3692 15.0391 24.0536 15.3547 24.0536 15.7441C24.0536 16.1334 24.3691 16.4491 24.7583 16.4491H28.5637V21.9361C28.5637 22.3382 28.263 22.679 27.864 22.7288L18.3315 23.9208C17.963 23.9669 17.615 23.7562 17.4846 23.4085L14.8757 16.449H18.7448C19.134 16.449 19.4495 16.1334 19.4495 15.744C19.4495 15.3547 19.134 15.039 18.7448 15.039H14.3472L13.757 13.4645C13.4357 12.6072 12.6048 12.0312 11.6895 12.0312H10.4763C10.0871 12.0312 9.77156 12.3468 9.77156 12.7362C9.77156 13.1255 10.0871 13.4412 10.4763 13.4412H11.6895C12.0205 13.4412 12.321 13.6496 12.4373 13.9597L16.1648 23.9037C16.2561 24.1473 16.3872 24.3654 16.5471 24.555L15.4585 26.37C15.3063 26.3367 15.1484 26.3185 14.9863 26.3185C13.7688 26.3185 12.7783 27.3094 12.7783 28.5274C12.7783 29.7453 13.7688 30.7362 14.9863 30.7362C15.9575 30.7362 16.7835 30.1055 17.0784 29.2323H25.6728C25.9676 30.1055 26.7938 30.7362 27.765 30.7362C28.9825 30.7362 29.973 29.7453 29.973 28.5274C29.973 27.3094 28.9825 26.3185 27.765 26.3185C26.7938 26.3185 25.9677 26.9492 25.6728 27.8225H17.0784C16.9877 27.5536 16.8466 27.3079 16.6664 27.0965L17.753 25.2848C17.9072 25.3188 18.0661 25.3373 18.228 25.3373C18.3199 25.3373 18.4129 25.3316 18.5061 25.3199L28.0386 24.1279C29.1414 23.99 29.973 23.0477 29.973 21.936V15.7441C29.9732 15.3548 29.6577 15.0391 29.2684 15.0391ZM14.9866 29.3263C14.5462 29.3263 14.188 28.968 14.188 28.5274C14.188 28.0868 14.5462 27.7284 14.9866 27.7284C15.427 27.7284 15.7853 28.0868 15.7853 28.5274C15.7853 28.968 15.427 29.3263 14.9866 29.3263ZM27.7651 27.7284C28.2055 27.7284 28.5638 28.0868 28.5638 28.5274C28.5638 28.968 28.2055 29.3263 27.7651 29.3263C27.3247 29.3263 26.9665 28.968 26.9665 28.5274C26.9665 28.0869 27.3247 27.7284 27.7651 27.7284Z" fill="black"/>
<path d="M21.7517 10.5275C21.3625 10.5275 21.0469 10.8431 21.0469 11.2325V19.306L19.9949 18.2536C19.7197 17.9783 19.2735 17.9783 18.9984 18.2536C18.7231 18.5289 18.7231 18.9751 18.9984 19.2505L21.2534 21.5063C21.391 21.644 21.5713 21.7128 21.7517 21.7128C21.932 21.7128 22.1123 21.644 22.2499 21.5063L24.5049 19.2505C24.7802 18.9751 24.7802 18.5289 24.5049 18.2536C24.2297 17.9783 23.7836 17.9783 23.5084 18.2536L22.4564 19.306V11.2324C22.4564 10.8431 22.1409 10.5275 21.7517 10.5275Z" fill="black"/>
</svg>
