<svg width="51" height="28" viewBox="0 0 51 28" fill="none" xmlns="http://www.w3.org/2000/svg">
<path d="M50.2031 25.6667C50.2031 26.5222 49.4859 27.2222 48.6094 27.2222H2.39063C1.51406 27.2222 0.796875 26.5222 0.796875 25.6667V2.33333C0.796875 1.47778 1.51406 0.777778 2.39063 0.777778H48.6094C49.4859 0.777778 50.2031 1.47778 50.2031 2.33333V25.6667Z" fill="#B8CA43"/>
<path d="M48.6094 28H2.39063C1.03594 28 0 26.9889 0 25.6667V2.33333C0 1.01111 1.03594 0 2.39063 0H48.6094C49.9641 0 51 1.01111 51 2.33333V25.6667C51 26.9889 49.9641 28 48.6094 28ZM2.39063 1.55556C1.9125 1.55556 1.59375 1.86667 1.59375 2.33333V25.6667C1.59375 26.1333 1.9125 26.4444 2.39063 26.4444H48.6094C49.0875 26.4444 49.4063 26.1333 49.4063 25.6667V2.33333C49.4063 1.86667 49.0875 1.55556 48.6094 1.55556H2.39063Z" fill="#231C1C"/>
<path d="M46.2188 20.2222V7.77778C44.4656 7.77778 43.0313 6.37778 43.0313 4.66667H7.96875C7.96875 6.37778 6.53438 7.77778 4.78125 7.77778V20.2222C6.53438 20.2222 7.96875 21.6222 7.96875 23.3333H43.0313C43.0313 21.6222 44.4656 20.2222 46.2188 20.2222Z" fill="#B8CA43"/>
<path d="M43.8281 24.1111H7.17188V23.3333C7.17188 22.0111 6.13594 21 4.78125 21H3.98438V7H4.78125C6.13594 7 7.17188 5.98889 7.17188 4.66667V3.88889H43.8281V4.66667C43.8281 5.98889 44.8641 7 46.2188 7H47.0156V21H46.2188C44.8641 21 43.8281 22.0111 43.8281 23.3333V24.1111ZM8.68594 22.5556H42.3141C42.6328 21 43.8281 19.8333 45.4219 19.5222V8.47778C43.8281 8.16667 42.6328 7 42.3141 5.44444H8.68594C8.36719 7 7.17188 8.16667 5.57813 8.47778V19.5222C7.17188 19.8333 8.36719 21 8.68594 22.5556Z" fill="#231C1C"/>
<path d="M15.1406 14C15.1406 15.43 15.4086 16.8459 15.9292 18.167C16.4498 19.4881 17.2129 20.6885 18.1748 21.6996C19.1368 22.7107 20.2788 23.5128 21.5356 24.06C22.7925 24.6072 24.1396 24.8889 25.5 24.8889C26.8604 24.8889 28.2075 24.6072 29.4644 24.06C30.7212 23.5128 31.8632 22.7107 32.8252 21.6996C33.7871 20.6885 34.5502 19.4881 35.0708 18.167C35.5914 16.8459 35.8594 15.43 35.8594 14C35.8594 12.5701 35.5914 11.1541 35.0708 9.833C34.5502 8.5119 33.7871 7.31152 32.8252 6.30039C30.8824 4.25833 28.2475 3.11111 25.5 3.11111C22.7525 3.11111 20.1176 4.25833 18.1748 6.30039C16.2321 8.34245 15.1406 11.1121 15.1406 14Z" fill="#E1E0A6"/>
<path d="M25.5 25.6667C19.3641 25.6667 14.3438 20.4556 14.3438 14C14.3438 7.54445 19.3641 2.33333 25.5 2.33333C31.6359 2.33333 36.6563 7.54445 36.6563 14C36.6563 20.4556 31.6359 25.6667 25.5 25.6667ZM25.5 3.88889C20.2406 3.88889 15.9375 8.4 15.9375 14C15.9375 19.6 20.2406 24.1111 25.5 24.1111C30.7594 24.1111 35.0625 19.6 35.0625 14C35.0625 8.4 30.7594 3.88889 25.5 3.88889Z" fill="#231C1C"/>
<path d="M24.7031 3.11111H26.2969V24.8889H24.7031V3.11111Z" fill="#231C1C"/>
<path d="M25.5 22.5556C24.1453 22.5556 22.8703 22.0111 21.9938 21.0778C21.1969 20.2222 20.7188 19.0556 20.7188 17.8889H22.3125C22.3125 18.6667 22.6313 19.4444 23.1891 19.9889C23.8266 20.6111 24.6234 21 25.5 21C27.2531 21 28.6875 19.6 28.6875 17.8889C28.6875 16.1778 27.2531 14.7778 25.5 14.7778C22.8703 14.7778 20.7188 12.6778 20.7188 10.1111C20.7188 7.54444 22.8703 5.44444 25.5 5.44444C28.1297 5.44444 30.2813 7.54444 30.2813 10.1111H28.6875C28.6875 8.4 27.2531 7 25.5 7C23.7469 7 22.3125 8.4 22.3125 10.1111C22.3125 11.8222 23.7469 13.2222 25.5 13.2222C28.1297 13.2222 30.2813 15.3222 30.2813 17.8889C30.2813 20.4556 28.1297 22.5556 25.5 22.5556Z" fill="#231C1C"/>
</svg>
