<svg width="32" height="36" viewBox="0 0 32 36" fill="none" xmlns="http://www.w3.org/2000/svg">
<path d="M24.2303 9.153H23.0288V13.166H24.2303C24.9111 13.166 25.4718 12.7246 25.4718 12.1226V10.1562C25.4718 9.59443 24.9111 9.153 24.2303 9.153Z" fill="#3A485E"/>
<path d="M6.48811 10.1562V12.1226C6.48811 12.6844 7.04881 13.166 7.72966 13.166H8.93116V9.153H7.72966C7.04881 9.153 6.48811 9.59443 6.48811 10.1562Z" fill="#3A485E"/>
<path d="M0 36V27.0911C0 25.0445 1.48185 23.1985 3.68461 22.5163L12.8961 19.7072C14.9387 19.0651 17.1014 19.0651 19.1039 19.7072L28.3154 22.5163C30.5182 23.1985 32 25.0445 32 27.0911V36H0Z" fill="#0DA9FF"/>
<path d="M23.4293 28.897H18.1026V30.0607H23.4293V28.897Z" fill="#FFD551"/>
<path d="M19.3442 14.089H12.5757V23.5196H19.3442V14.089Z" fill="#EDBF9A"/>
<path d="M23.6696 9.43391C23.6696 14.6508 20.2253 19.948 15.98 19.948C11.7347 19.948 8.29036 14.6107 8.29036 9.43391C8.29036 4.25713 11.7347 1.08686 15.98 1.08686C20.2253 1.08686 23.6696 4.217 23.6696 9.43391Z" fill="#FFD9B6"/>
<path d="M7.32916 30.6627H7.08886C6.84856 30.6627 6.64831 30.8634 6.64831 31.1041V35.9599H7.80976V31.1443C7.76971 30.8633 7.56946 30.6627 7.32916 30.6627Z" fill="#0E9EDD"/>
<path d="M24.8711 30.6627H24.6308C24.3905 30.6627 24.1902 30.8634 24.1902 31.1041V35.9599H25.3517V31.1443C25.3517 30.8633 25.1514 30.6627 24.8711 30.6627Z" fill="#0E9EDD"/>
<path d="M19.3842 20.3894L15.98 23.4393L12.5757 20.3894L12.0951 19.948L8.49061 21.0315L13.8573 25.8872L15.98 23.5196L18.1026 25.8872L23.4693 21.0315L19.8648 19.948L19.3842 20.3894Z" fill="#0E9EDD"/>
<path d="M19.0638 16.4567C18.5031 16.4567 18.383 16.4567 17.7021 16.4165H17.0213V15.8948H17.7021C20.786 15.9751 21.8273 16.0152 22.7885 15.2126C23.7897 14.41 23.5895 12.3233 23.5895 12.2831L24.1101 12.243C24.1101 12.3233 24.3504 14.6107 23.1089 15.6139C22.2278 16.3363 21.0663 16.4567 19.0638 16.4567Z" fill="#3A485E"/>
<path d="M18.3029 17.0586H16.4606C16.1802 17.0586 15.98 16.8178 15.98 16.5771V15.8948C15.98 15.6139 16.2203 15.4133 16.4606 15.4133H18.3029C18.5832 15.4133 18.7835 15.6541 18.7835 15.8948V16.5771C18.8235 16.8178 18.5832 17.0586 18.3029 17.0586Z" fill="#0E9EDD"/>
<path d="M23.6696 4.49791C23.6696 2.13024 22.4681 2.00985 22.4681 2.00985L20.5857 1.76907C20.2253 1.72894 19.9449 1.44803 19.9049 1.08686C19.6646 -0.117046 18.7835 0.00334421 18.7835 0.00334421C18.7835 0.00334421 12.5357 0.0033441 10.5732 0.765815C8.29036 1.64868 7.72966 3.25388 7.72966 4.53804C7.72966 7.18662 8.41051 11.9621 8.81101 13.0456C8.89111 13.2864 9.29161 13.2463 9.29161 12.9654V9.39378C9.29161 9.153 9.49186 8.99248 9.69211 8.99248H18.383C18.6233 8.99248 18.7835 8.79183 18.7835 8.59118V7.74845C18.7835 7.50766 18.9837 7.34714 19.184 7.34714C19.3842 7.34714 19.5845 7.54779 19.5845 7.74845V8.59118C19.5845 8.83195 19.7847 8.99248 19.985 8.99248H22.2278C22.4681 8.99248 22.6283 9.19313 22.6283 9.39378V12.8048C22.6283 13.0857 23.0288 13.1259 23.1089 12.8851C23.4293 11.7615 23.5895 10.5977 23.5895 9.43391C23.6696 9.0326 23.6696 5.86233 23.6696 4.49791Z" fill="#3F3F3F"/>
</svg>
