<svg width="43" height="24" viewBox="0 0 43 24" fill="none" xmlns="http://www.w3.org/2000/svg">
<path d="M40.9524 12.873C40.9524 13.6262 40.3381 14.2425 39.5873 14.2425H35.8333C35.0825 14.2425 34.4683 13.6262 34.4683 12.873V11.9829C34.4683 11.2297 35.0825 10.6134 35.8333 10.6134H39.5873C40.3381 10.6134 40.9524 11.2297 40.9524 11.9829V12.873Z" fill="#464F51"/>
<path d="M32.6937 3.83452C32.6937 4.65621 32.0111 5.27247 31.2603 5.27247H3.34444C2.5254 5.27247 1.91111 4.58773 1.91111 3.83452V1.43795C1.91111 0.616263 2.59365 0 3.34444 0H31.2603C32.0794 0 32.6937 0.684736 32.6937 1.43795V3.83452Z" fill="#464F51"/>
<path d="M32.6937 4.24536C32.6937 5.06705 32.0111 5.68331 31.2603 5.68331H3.34444C2.5254 5.68331 1.91111 4.99857 1.91111 4.24536V1.84879C1.91111 1.0271 2.59365 0.410842 3.34444 0.410842H31.2603C32.0794 0.410842 32.6937 1.09558 32.6937 1.84879V4.24536Z" fill="black"/>
<path d="M32.6937 4.24536C32.6937 5.06705 32.0111 5.68331 31.2603 5.68331H3.34444C2.5254 5.68331 1.91111 4.99857 1.91111 4.24536V1.84879C1.91111 1.0271 2.59365 0.410842 3.34444 0.410842H31.2603C32.0794 0.410842 32.6937 1.09558 32.6937 1.84879V4.24536Z" fill="black"/>
<path d="M42.6587 19.1041C42.6587 19.6519 42.181 20.1312 41.6349 20.1312H1.56984C1.02381 20.1312 0.546032 19.6519 0.546032 19.1041V12.2568C0.546032 11.709 1.02381 11.2297 1.56984 11.2297H40.9524C41.4984 11.2297 41.9762 11.709 41.9762 12.2568L42.6587 19.1041Z" fill="black"/>
<path d="M43 20.4736C43 20.8845 42.6587 21.1583 42.3175 21.1583H0.68254C0.273016 21.1583 0 20.816 0 20.4736V20.0628C0 19.6519 0.34127 19.378 0.68254 19.378H42.3175C42.727 19.378 43 19.7204 43 20.0628V20.4736Z" fill="#6E7577"/>
<path d="M4.3 19.9258C4.3 17.5292 6.21111 15.612 8.6 15.612C10.9889 15.612 12.9 17.5292 12.9 19.9258" fill="black"/>
<path d="M13.1048 19.9258H12.7635C12.7635 17.6662 10.9206 15.7489 8.6 15.7489C6.34762 15.7489 4.43651 17.5977 4.43651 19.9258H4.09524C4.09524 17.4608 6.0746 15.4066 8.6 15.4066C11.1254 15.4066 13.1048 17.4608 13.1048 19.9258Z" fill="#8E8E8E"/>
<path d="M8.6 23.9658C10.7487 23.9658 12.4905 22.2183 12.4905 20.0628C12.4905 17.9072 10.7487 16.1598 8.6 16.1598C6.45135 16.1598 4.70952 17.9072 4.70952 20.0628C4.70952 22.2183 6.45135 23.9658 8.6 23.9658Z" fill="#203547"/>
<path d="M11.3302 17.3238C12.8317 18.8302 12.8317 21.2953 11.3302 22.8702C9.82857 24.3766 7.37143 24.3766 5.80159 22.8702" fill="#122130"/>
<path d="M8.6 22.5278C9.95704 22.5278 11.0571 21.4242 11.0571 20.0628C11.0571 18.7014 9.95704 17.5977 8.6 17.5977C7.24296 17.5977 6.14286 18.7014 6.14286 20.0628C6.14286 21.4242 7.24296 22.5278 8.6 22.5278Z" fill="#6E7577"/>
<path d="M10.3063 18.3509C11.2619 19.3096 11.2619 20.8844 10.3063 21.8431C9.35079 22.8017 7.78095 22.8017 6.8254 21.8431" fill="#4C5456"/>
<path d="M8.6 22.1854C9.76857 22.1854 10.7159 21.2351 10.7159 20.0628C10.7159 18.8904 9.76857 17.9401 8.6 17.9401C7.43144 17.9401 6.48413 18.8904 6.48413 20.0628C6.48413 21.2351 7.43144 22.1854 8.6 22.1854Z" fill="#CED8DD"/>
<path d="M10.1016 18.5563C10.9206 19.378 10.9206 20.7475 10.1016 21.5692C9.28254 22.3909 7.91746 22.3909 7.09841 21.5692" fill="#B2BBC1"/>
<path d="M9.62381 20.0628C9.62381 20.6106 9.14603 21.2268 8.6 21.2268C8.05397 21.2268 7.57619 20.6106 7.57619 20.0628C7.57619 19.515 8.05397 19.0357 8.6 19.0357C9.14603 19.1041 9.62381 19.515 9.62381 20.0628Z" fill="#888F91"/>
<path d="M8.6 21.0899C9.16543 21.0899 9.62381 20.63 9.62381 20.0628C9.62381 19.4955 9.16543 19.0357 8.6 19.0357C8.03457 19.0357 7.57619 19.4955 7.57619 20.0628C7.57619 20.63 8.03457 21.0899 8.6 21.0899Z" fill="#E7EFF2"/>
<path d="M8.6 19.1041C9.14603 19.1041 9.62381 19.5835 9.62381 20.1312C9.62381 20.679 9.14603 21.1583 8.6 21.1583" fill="#DAE6EA"/>
<path d="M8.6 17.9401C8.53175 17.9401 8.39524 17.9401 8.32698 17.9401C8.39524 18.2825 8.46349 18.4879 8.6 18.4879C8.73651 18.4879 8.87302 18.2825 8.87302 17.9401C8.80476 17.9401 8.73651 17.9401 8.6 17.9401Z" fill="#666E70"/>
<path d="M8.6 18.4879C8.73651 18.4879 8.87302 18.2825 8.87302 17.9401C8.80476 17.9401 8.66825 17.9401 8.6 17.9401" fill="#535A5B"/>
<path d="M8.32698 22.1854C8.53175 22.1854 8.73651 22.1854 8.87302 22.1854C8.80476 21.9116 8.73651 21.6377 8.6 21.6377C8.46349 21.6377 8.32698 21.9116 8.32698 22.1854Z" fill="#666E70"/>
<path d="M8.87302 22.1854C8.80476 21.9116 8.73651 21.6377 8.6 21.6377L8.87302 22.1854Z" fill="#535A5B"/>
<path d="M6.89365 18.7618C7.16667 18.9672 7.37143 19.0357 7.43968 18.9672C7.50794 18.8987 7.43968 18.6248 7.30317 18.4194C7.16667 18.4879 7.03016 18.6248 6.89365 18.7618Z" fill="#666E70"/>
<path d="M7.50794 18.9672C7.57619 18.8987 7.50794 18.6248 7.37143 18.4194L7.50794 18.9672Z" fill="#535A5B"/>
<path d="M10.3064 21.3638C10.0333 21.1583 9.82857 21.0899 9.76032 21.2268C9.69206 21.2953 9.76032 21.5692 9.89683 21.7746C9.96508 21.7061 10.0333 21.6377 10.1016 21.5692C10.1698 21.5007 10.2381 21.4322 10.3064 21.3638Z" fill="#666E70"/>
<path d="M10.1016 21.5692C10.1698 21.5007 10.2381 21.4322 10.3064 21.3638C10.0333 21.1583 9.82857 21.0899 9.76032 21.2268" fill="#535A5B"/>
<path d="M6.48413 20.3367C6.75714 20.2682 7.03016 20.1997 7.03016 20.0628C7.03016 19.9258 6.8254 19.7889 6.48413 19.7889C6.48413 19.8573 6.48413 19.9943 6.48413 20.0628C6.48413 20.1997 6.48413 20.2682 6.48413 20.3367Z" fill="#666E70"/>
<path d="M7.03016 20.0628C7.03016 19.9258 6.8254 19.7889 6.48413 19.7889C6.48413 19.8573 6.48413 19.9943 6.48413 20.0628" fill="#535A5B"/>
<path d="M10.1698 20.0628C10.1698 20.1997 10.3746 20.3367 10.7159 20.3367C10.7159 20.1312 10.7159 19.9258 10.7159 19.7889C10.4429 19.8573 10.1698 19.9258 10.1698 20.0628Z" fill="#666E70"/>
<path d="M10.7159 19.7889C10.4429 19.8573 10.1698 19.9258 10.1698 20.0628L10.7159 19.7889Z" fill="#535A5B"/>
<path d="M6.89365 21.3638C7.03016 21.5007 7.16667 21.6377 7.30317 21.7746C7.50794 21.5007 7.57619 21.2953 7.43968 21.2268C7.37143 21.0899 7.16667 21.1583 6.89365 21.3638Z" fill="#666E70"/>
<path d="M7.30317 21.7746C7.50794 21.5007 7.57619 21.2953 7.43968 21.2268L7.30317 21.7746Z" fill="#535A5B"/>
<path d="M9.89683 18.3509C9.69206 18.6248 9.62381 18.8302 9.69206 18.8987C9.76032 18.9672 10.0333 18.8987 10.2381 18.7618C10.1698 18.6248 10.0333 18.4879 9.89683 18.3509Z" fill="#666E70"/>
<path d="M9.89683 18.3509C9.69206 18.6248 9.62381 18.8302 9.69206 18.8987L9.89683 18.3509Z" fill="#535A5B"/>
<path d="M29.827 19.9258C29.827 17.5292 31.7381 15.612 34.127 15.612C36.5159 15.612 38.427 17.5292 38.427 19.9258" fill="black"/>
<path d="M38.6317 19.9258H38.2905C38.2905 17.6662 36.4476 15.7489 34.127 15.7489C31.8746 15.7489 29.9635 17.5977 29.9635 19.9258H29.6905C29.6905 17.4608 31.6698 15.4066 34.1952 15.4066C36.7206 15.4066 38.6317 17.4608 38.6317 19.9258Z" fill="#8E8E8E"/>
<path d="M34.127 23.9658C36.2756 23.9658 38.0175 22.2183 38.0175 20.0628C38.0175 17.9072 36.2756 16.1598 34.127 16.1598C31.9783 16.1598 30.2365 17.9072 30.2365 20.0628C30.2365 22.2183 31.9783 23.9658 34.127 23.9658Z" fill="#203547"/>
<path d="M36.9254 17.3238C38.427 18.8302 38.427 21.2953 36.9254 22.8702C35.4238 24.3766 32.9667 24.3766 31.3968 22.8702" fill="#122130"/>
<path d="M34.127 22.5278C35.484 22.5278 36.5841 21.4242 36.5841 20.0628C36.5841 18.7014 35.484 17.5977 34.127 17.5977C32.7699 17.5977 31.6698 18.7014 31.6698 20.0628C31.6698 21.4242 32.7699 22.5278 34.127 22.5278Z" fill="#6E7577"/>
<path d="M35.9016 18.3509C36.8571 19.3096 36.8571 20.8844 35.9016 21.8431C34.946 22.8017 33.3762 22.8017 32.4206 21.8431" fill="#4C5456"/>
<path d="M34.127 22.1854C35.2956 22.1854 36.2429 21.2351 36.2429 20.0628C36.2429 18.8904 35.2956 17.9401 34.127 17.9401C32.9584 17.9401 32.0111 18.8904 32.0111 20.0628C32.0111 21.2351 32.9584 22.1854 34.127 22.1854Z" fill="#CED8DD"/>
<path d="M35.6968 18.5563C36.5159 19.378 36.5159 20.7475 35.6968 21.5692C34.8778 22.3909 33.5127 22.3909 32.6937 21.5692" fill="#B2BBC1"/>
<path d="M35.1508 20.0628C35.1508 20.6106 34.673 21.2268 34.127 21.2268C33.581 21.2268 33.1032 20.6106 33.1032 20.0628C33.1032 19.515 33.581 19.0357 34.127 19.0357C34.673 19.0357 35.1508 19.515 35.1508 20.0628Z" fill="#888F91"/>
<path d="M34.127 21.0899C34.6924 21.0899 35.1508 20.63 35.1508 20.0628C35.1508 19.4955 34.6924 19.0357 34.127 19.0357C33.5616 19.0357 33.1032 19.4955 33.1032 20.0628C33.1032 20.63 33.5616 21.0899 34.127 21.0899Z" fill="#E7EFF2"/>
<path d="M34.127 19.1041C34.673 19.1041 35.1508 19.5835 35.1508 20.1312C35.1508 20.679 34.673 21.1583 34.127 21.1583" fill="#DAE6EA"/>
<path d="M34.127 17.9401C34.0587 17.9401 33.9222 17.9401 33.854 17.9401C33.9222 18.2825 33.9905 18.4879 34.127 18.4879C34.2635 18.4879 34.4 18.2825 34.4 17.9401C34.3317 17.9401 34.2635 17.9401 34.127 17.9401Z" fill="#666E70"/>
<path d="M34.127 18.4879C34.2635 18.4879 34.4 18.2825 34.4 17.9401C34.3317 17.9401 34.1952 17.9401 34.127 17.9401" fill="#535A5B"/>
<path d="M33.854 22.1854C34.0587 22.1854 34.2635 22.1854 34.4 22.1854C34.3317 21.9116 34.2635 21.6377 34.127 21.6377C34.0587 21.6377 33.9222 21.9116 33.854 22.1854Z" fill="#666E70"/>
<path d="M34.4683 22.1854C34.4 21.9116 34.3317 21.6377 34.1952 21.6377L34.4683 22.1854Z" fill="#535A5B"/>
<path d="M32.4889 18.7618C32.7619 18.9672 32.9667 19.0357 33.0349 18.9672C33.1032 18.8987 33.0349 18.6248 32.8302 18.4194C32.6937 18.4879 32.5571 18.6248 32.4889 18.7618Z" fill="#666E70"/>
<path d="M33.0349 18.9672C33.1032 18.8987 33.0349 18.6248 32.8302 18.4194L33.0349 18.9672Z" fill="#535A5B"/>
<path d="M35.8333 21.3638C35.5603 21.1583 35.3556 21.0899 35.2873 21.2268C35.219 21.2953 35.2873 21.5692 35.4238 21.7746C35.4921 21.7061 35.5603 21.6377 35.6286 21.5692C35.7651 21.5007 35.7651 21.4322 35.8333 21.3638Z" fill="#666E70"/>
<path d="M35.6968 21.5692C35.7651 21.5007 35.8333 21.4322 35.9016 21.3638C35.6286 21.1583 35.4238 21.0899 35.3556 21.2268" fill="#535A5B"/>
<path d="M32.0111 20.3367C32.3524 20.2682 32.5571 20.1997 32.5571 20.0628C32.5571 19.9258 32.3524 19.7889 32.0111 19.7889C32.0111 19.8573 32.0111 19.9943 32.0111 20.0628C32.0111 20.1997 32.0111 20.2682 32.0111 20.3367Z" fill="#666E70"/>
<path d="M32.5571 20.0628C32.5571 19.9258 32.3524 19.7889 32.0111 19.7889C32.0111 19.8573 32.0111 19.9943 32.0111 20.0628" fill="#535A5B"/>
<path d="M35.7651 20.0628C35.7651 20.1997 35.9698 20.3367 36.3111 20.3367C36.3111 20.1312 36.3111 19.9258 36.3111 19.7889C35.9698 19.8573 35.7651 19.9258 35.7651 20.0628Z" fill="#666E70"/>
<path d="M36.2429 19.7889C35.9698 19.8573 35.6968 19.9258 35.6968 20.0628L36.2429 19.7889Z" fill="#535A5B"/>
<path d="M32.4889 21.3638C32.6254 21.5007 32.7619 21.6377 32.8984 21.7746C33.1032 21.5007 33.1714 21.2953 33.1032 21.2268C32.9667 21.0899 32.6937 21.1583 32.4889 21.3638Z" fill="#666E70"/>
<path d="M32.8984 21.7746C33.1032 21.5007 33.1714 21.2953 33.1032 21.2268L32.8984 21.7746Z" fill="#535A5B"/>
<path d="M35.4238 18.3509C35.2191 18.6248 35.1508 18.8302 35.219 18.8987C35.2873 18.9672 35.5603 18.8987 35.7651 18.7618C35.7651 18.6248 35.6286 18.4879 35.4238 18.3509Z" fill="#666E70"/>
<path d="M35.4238 18.3509C35.2191 18.6248 35.1508 18.8302 35.219 18.8987L35.4238 18.3509Z" fill="#535A5B"/>
<path d="M38.3587 12.3252C38.3587 13.0785 37.7444 13.6947 36.9937 13.6947H2.73016C1.97937 13.6947 1.36508 13.0785 1.36508 12.3252V2.80742C1.36508 2.05421 1.97937 1.43795 2.73016 1.43795H32.8302C33.581 1.43795 34.1952 2.05421 34.1952 2.80742L38.3587 12.3252Z" fill="black"/>
<path d="M40.2698 12.9415C40.2698 13.6947 39.6556 14.311 38.9048 14.311H35.1508C34.4 14.311 33.7857 13.6947 33.7857 12.9415V11.9829C33.7857 11.2297 34.4 10.6134 35.1508 10.6134H38.9048C39.6556 10.6134 40.2698 11.2297 40.2698 11.9829V12.9415Z" fill="black"/>
<path d="M40.2698 12.9415C40.2698 13.6947 39.6556 14.311 38.9048 14.311H35.1508C34.4 14.311 33.7857 13.6947 33.7857 12.9415V11.9829C33.7857 11.2297 34.4 10.6134 35.1508 10.6134H38.9048C39.6556 10.6134 40.2698 11.2297 40.2698 11.9829V12.9415Z" fill="black"/>
<path d="M1.6381 17.6662C1.6381 18.077 1.29683 18.0086 0.955556 18.0086C0.546032 18.0086 0.273016 17.6662 0.273016 17.3238V14.174C0.273016 13.7632 0.614286 13.4893 0.955556 13.4893C1.36508 13.4893 1.6381 13.8317 1.6381 14.174V17.6662Z" fill="#DB0940"/>
<path d="M0.955556 13.4893C1.36508 13.4893 1.6381 13.8317 1.6381 14.174V17.6662C1.6381 18.077 1.29683 18.0086 0.955556 18.0086" fill="#BC043D"/>
<path d="M37.6079 10.5449L34.4 3.21826H24.3667C23.9571 3.21826 23.6159 3.56063 23.6159 3.97147V9.79173C23.6159 10.2026 23.9571 10.5449 24.3667 10.5449H37.4032C37.4032 10.5449 37.5397 10.5449 37.6079 10.5449Z" fill="#51859B"/>
<path d="M28.1206 3.21826L23.5476 7.80599V9.79173C23.5476 10.1341 23.8206 10.408 24.0937 10.5449L31.3968 3.21826H28.1206Z" fill="#81B6C9"/>
<path d="M26.9603 3.21826H24.9127L23.5476 4.58773V6.57347L26.9603 3.21826Z" fill="#81B6C9"/>
<path d="M34.3317 10.5449L37.4032 10.5449C37.4714 10.5449 37.5397 10.5449 37.6079 10.4765L36.6524 8.21683L34.3317 10.5449Z" fill="#81B6C9"/>
<path d="M34.7413 3.97147L34.4 3.21826H33.9222L26.5508 10.5449H28.1889L34.7413 3.97147Z" fill="#81B6C9"/>
<path d="M34.673 11.0243C34.7413 11.2297 34.6048 11.4351 34.4 11.5036C34.1952 11.572 33.9905 11.4351 33.9222 11.2297L31.5333 2.05421C31.4651 1.84879 31.6016 1.64337 31.8064 1.57489C32.0111 1.50642 32.2159 1.64337 32.2841 1.84879L34.673 11.0243Z" fill="black"/>
<path d="M25.6635 12.2568C25.6635 12.5307 25.4587 12.7361 25.1857 12.7361H24.0937C23.8206 12.7361 23.6159 12.5307 23.6159 12.2568C23.6159 11.9829 23.8206 11.7775 24.0937 11.7775H25.1857C25.4587 11.8459 25.6635 12.0514 25.6635 12.2568Z" fill="#8E8E8E"/>
<path d="M17.6095 12.2568C17.6095 12.5307 17.4048 12.7361 17.1317 12.7361H16.0397C15.7667 12.7361 15.5619 12.5307 15.5619 12.2568C15.5619 11.9829 15.7667 11.7775 16.0397 11.7775H17.1317C17.4048 11.8459 17.6095 12.0514 17.6095 12.2568Z" fill="#8E8E8E"/>
<path d="M20.4762 18.1455C20.4762 18.2825 20.3397 18.4194 20.2032 18.4194C20.0667 18.4194 19.9302 18.2825 19.9302 18.1455V3.49215C19.9302 3.35521 20.0667 3.21826 20.2032 3.21826C20.3397 3.21826 20.4762 3.35521 20.4762 3.49215V18.1455Z" fill="#464F51"/>
<path d="M4.70952 11.9829C4.70952 12.0514 4.64127 12.1198 4.57302 12.1198H3.61746C3.54921 12.1198 3.48095 12.0514 3.48095 11.9829C3.48095 11.9144 3.54921 11.8459 3.61746 11.8459H4.57302C4.64127 11.8459 4.70952 11.9144 4.70952 11.9829Z" fill="#464F51"/>
<path d="M4.70952 12.7361C4.70952 12.8046 4.64127 12.873 4.57302 12.873H3.61746C3.54921 12.873 3.48095 12.8046 3.48095 12.7361C3.48095 12.6676 3.54921 12.5991 3.61746 12.5991H4.57302C4.64127 12.5991 4.70952 12.6676 4.70952 12.7361Z" fill="#464F51"/>
<path d="M4.70952 13.4893C4.70952 13.5578 4.64127 13.6262 4.57302 13.6262H3.61746C3.54921 13.6262 3.48095 13.5578 3.48095 13.4893C3.48095 13.4208 3.54921 13.3524 3.61746 13.3524H4.57302C4.64127 13.3524 4.70952 13.4208 4.70952 13.4893Z" fill="#464F51"/>
<path d="M42.3857 16.913C42.3857 17.2554 42.1127 17.5292 41.8397 17.5292C41.4984 17.5292 41.2254 17.2554 41.2254 16.913V14.0371C41.2254 13.6947 41.4984 13.4893 41.8397 13.4893C42.181 13.4893 42.3857 13.7632 42.3857 14.0371V16.913Z" fill="#FFA300"/>
<path d="M41.7714 17.5292C41.4302 17.5292 41.1571 17.2554 41.1571 16.913V14.0371C41.1571 13.6947 41.4302 13.4893 41.7714 13.4893" fill="#FF7300"/>
<path d="M11.1937 6.29957H10.1016V5.47789C10.1016 5.13552 9.82857 4.79315 9.41905 4.79315H8.25873C7.91746 4.79315 7.57619 5.06705 7.57619 5.47789V6.29957H6.48413C6.21111 6.29957 5.9381 6.57347 5.9381 6.98431V8.14836C5.9381 8.49073 6.21111 8.8331 6.48413 8.8331H7.57619V11.3666C7.57619 11.709 7.84921 12.0514 8.25873 12.0514H9.41905C9.82857 12.0514 10.1016 11.7775 10.1016 11.3666V8.8331H11.1937C11.4667 8.8331 11.7397 8.5592 11.7397 8.14836V6.98431C11.7397 6.64194 11.5349 6.29957 11.1937 6.29957Z" fill="#F3FEFF"/>
</svg>
