<svg width="36" height="36" viewBox="0 0 36 36" fill="none" xmlns="http://www.w3.org/2000/svg">
<path d="M2.90323 2.90323L5.22581 0.580645H30.7742L33.0968 2.90323H2.90323Z" fill="#7C6749"/>
<path d="M5.22581 0.580645L2.90323 2.90323H31.3548L29.0323 0.580645H5.22581Z" fill="#A58961"/>
<path d="M34.2581 2.90323H1.74194V5.22581H34.2581V2.90323Z" fill="#95845C"/>
<path d="M32.5161 2.90323H1.74194V5.22581H32.5161V2.90323Z" fill="#C7B07B"/>
<path d="M33.0968 5.22581H2.90323V12.1935H33.0968V5.22581Z" fill="#7C6749"/>
<path d="M31.3548 5.22581H2.90323V12.1935H31.3548V5.22581Z" fill="#A58961"/>
<path d="M35.4194 12.1935H0.580645V14.5161H35.4194V12.1935Z" fill="#464646"/>
<path d="M33.6774 12.1935H0.580645V14.5161H33.6774V12.1935Z" fill="#686868"/>
<path d="M34.2581 14.5161H1.74194V24.9677H34.2581V14.5161Z" fill="#8B8B8B"/>
<path d="M32.5161 14.5161H1.74194V24.9677H32.5161V14.5161Z" fill="#BABABA"/>
<path d="M26.129 27.2903C27.7324 27.2903 29.0323 25.9905 29.0323 24.3871C29.0323 22.7837 27.7324 21.4839 26.129 21.4839C24.5256 21.4839 23.2258 22.7837 23.2258 24.3871C23.2258 25.9905 24.5256 27.2903 26.129 27.2903Z" fill="#7C6749"/>
<path d="M25.2581 27.1452C26.3804 27.1452 27.2903 25.9103 27.2903 24.3871C27.2903 22.8639 26.3804 21.629 25.2581 21.629C24.1357 21.629 23.2258 22.8639 23.2258 24.3871C23.2258 25.9103 24.1357 27.1452 25.2581 27.1452Z" fill="#A58961"/>
<path d="M18 27.2903C19.6034 27.2903 20.9032 25.9905 20.9032 24.3871C20.9032 22.7837 19.6034 21.4839 18 21.4839C16.3966 21.4839 15.0968 22.7837 15.0968 24.3871C15.0968 25.9905 16.3966 27.2903 18 27.2903Z" fill="#7C6749"/>
<path d="M17.129 27.1452C18.2514 27.1452 19.1613 25.9103 19.1613 24.3871C19.1613 22.8639 18.2514 21.629 17.129 21.629C16.0066 21.629 15.0968 22.8639 15.0968 24.3871C15.0968 25.9103 16.0066 27.1452 17.129 27.1452Z" fill="#A58961"/>
<path d="M9.87097 27.2903C11.4744 27.2903 12.7742 25.9905 12.7742 24.3871C12.7742 22.7837 11.4744 21.4839 9.87097 21.4839C8.26756 21.4839 6.96774 22.7837 6.96774 24.3871C6.96774 25.9905 8.26756 27.2903 9.87097 27.2903Z" fill="#7C6749"/>
<path d="M9 27.1452C10.1224 27.1452 11.0323 25.9103 11.0323 24.3871C11.0323 22.8639 10.1224 21.629 9 21.629C7.87761 21.629 6.96774 22.8639 6.96774 24.3871C6.96774 25.9103 7.87761 27.1452 9 27.1452Z" fill="#A58961"/>
<path d="M26.129 27.2903C27.207 27.2903 28.2408 27.7185 29.0031 28.4808C29.7653 29.243 30.1935 30.2769 30.1935 31.3548V35.4194H22.0645V31.3548C22.0645 30.2769 22.4927 29.243 23.255 28.4808C24.0172 27.7185 25.0511 27.2903 26.129 27.2903Z" fill="#7C6749"/>
<path d="M25.2581 27.389C24.3536 27.5874 23.5441 28.0887 22.9633 28.8099C22.3826 29.5311 22.0655 30.4289 22.0645 31.3548V35.4194H28.4516V31.3548C28.4506 30.4289 28.1335 29.5311 27.5528 28.8099C26.9721 28.0887 26.1625 27.5874 25.2581 27.389Z" fill="#A58961"/>
<path d="M18 27.2903C19.078 27.2903 20.1118 27.7185 20.874 28.4808C21.6363 29.243 22.0645 30.2769 22.0645 31.3548V35.4194H13.9355V31.3548C13.9355 30.2769 14.3637 29.243 15.126 28.4808C15.8882 27.7185 16.922 27.2903 18 27.2903Z" fill="#7C6749"/>
<path d="M17.129 27.389C16.2246 27.5874 15.415 28.0887 14.8343 28.8099C14.2536 29.5311 13.9365 30.4289 13.9355 31.3548V35.4194H20.3226V31.3548C20.3216 30.4289 20.0045 29.5311 19.4238 28.8099C18.843 28.0887 18.0335 27.5874 17.129 27.389Z" fill="#A58961"/>
<path d="M9.87097 27.2903C10.9489 27.2903 11.9828 27.7185 12.745 28.4808C13.5073 29.243 13.9355 30.2769 13.9355 31.3548V35.4194H5.80645V31.3548C5.80645 30.2769 6.23468 29.243 6.99692 28.4808C7.75917 27.7185 8.79299 27.2903 9.87097 27.2903Z" fill="#7C6749"/>
<path d="M9 27.389C8.09558 27.5874 7.28601 28.0887 6.70527 28.8099C6.12453 29.5311 5.80743 30.4289 5.80645 31.3548V35.4194H12.1935V31.3548C12.1926 30.4289 11.8755 29.5311 11.2947 28.8099C10.714 28.0887 9.90442 27.5874 9 27.389Z" fill="#A58961"/>
<path d="M28.4516 24.3871C28.4516 23.1044 27.4118 22.0645 26.129 22.0645C24.8463 22.0645 23.8065 23.1044 23.8065 24.3871C23.8065 25.6698 24.8463 26.7097 26.129 26.7097C27.4118 26.7097 28.4516 25.6698 28.4516 24.3871ZM29.6129 24.3871C29.6129 26.3112 28.0531 27.871 26.129 27.871C24.2049 27.871 22.6452 26.3112 22.6452 24.3871C22.6452 22.463 24.2049 20.9032 26.129 20.9032C28.0531 20.9032 29.6129 22.463 29.6129 24.3871Z" fill="black"/>
<path d="M29.6126 31.3116C29.6014 30.4032 29.2357 29.5345 28.5925 28.8914C27.9392 28.238 27.053 27.871 26.129 27.871C25.2051 27.871 24.3189 28.238 23.6656 28.8914C23.0122 29.5447 22.6452 30.4309 22.6452 31.3548V34.8387H29.6129V31.3548L29.6126 31.3116ZM30.7742 35.4194C30.7742 35.74 30.5142 36 30.1935 36H22.0645C21.7438 36 21.4839 35.74 21.4839 35.4194V31.3548C21.4839 30.1229 21.9733 28.9413 22.8444 28.0702C23.7155 27.1991 24.8971 26.7097 26.129 26.7097C27.361 26.7097 28.5425 27.1991 29.4137 28.0702C30.2848 28.9413 30.7742 30.1229 30.7742 31.3548V35.4194Z" fill="black"/>
<path d="M20.3226 24.3871C20.3226 23.1044 19.2827 22.0645 18 22.0645C16.7173 22.0645 15.6774 23.1044 15.6774 24.3871C15.6774 25.6698 16.7173 26.7097 18 26.7097C19.2827 26.7097 20.3226 25.6698 20.3226 24.3871ZM21.4839 24.3871C21.4839 26.3112 19.9241 27.871 18 27.871C16.0759 27.871 14.5161 26.3112 14.5161 24.3871C14.5161 22.463 16.0759 20.9032 18 20.9032C19.9241 20.9032 21.4839 22.463 21.4839 24.3871Z" fill="black"/>
<path d="M21.4839 31.3548C21.4839 30.4309 21.1168 29.5447 20.4635 28.8914C19.8101 28.238 18.924 27.871 18 27.871C17.076 27.871 16.1899 28.238 15.5365 28.8914C14.8832 29.5447 14.5161 30.4309 14.5161 31.3548V34.8387H21.4839V31.3548ZM22.6452 35.4194C22.6452 35.74 22.3852 36 22.0645 36H13.9355C13.6148 36 13.3548 35.74 13.3548 35.4194V31.3548C13.3548 30.1229 13.8442 28.9413 14.7154 28.0702C15.5865 27.1991 16.768 26.7097 18 26.7097C19.232 26.7097 20.4135 27.1991 21.2846 28.0702C22.1558 28.9413 22.6452 30.1229 22.6452 31.3548V35.4194Z" fill="black"/>
<path d="M12.1935 24.3871C12.1935 23.1044 11.1537 22.0645 9.87097 22.0645C8.58824 22.0645 7.54839 23.1044 7.54839 24.3871C7.54839 25.6698 8.58824 26.7097 9.87097 26.7097C11.1537 26.7097 12.1935 25.6698 12.1935 24.3871ZM13.3548 24.3871C13.3548 26.3112 11.7951 27.871 9.87097 27.871C7.94688 27.871 6.3871 26.3112 6.3871 24.3871C6.3871 22.463 7.94688 20.9032 9.87097 20.9032C11.7951 20.9032 13.3548 22.463 13.3548 24.3871Z" fill="black"/>
<path d="M13.3548 31.3548C13.3548 30.4309 12.9878 29.5447 12.3344 28.8914C11.6811 28.238 10.7949 27.871 9.87097 27.871C8.94699 27.871 8.06084 28.238 7.40749 28.8914C6.75414 29.5447 6.3871 30.4309 6.3871 31.3548V34.8387H13.3548V31.3548ZM14.5161 35.4194C14.5161 35.74 14.2562 36 13.9355 36H5.80645C5.48577 36 5.22581 35.74 5.22581 35.4194V31.3548C5.22581 30.1229 5.71519 28.9413 6.58633 28.0702C7.45747 27.1991 8.639 26.7097 9.87097 26.7097C11.1029 26.7097 12.2845 27.1991 13.1556 28.0702C14.0267 28.9413 14.5161 30.1229 14.5161 31.3548V35.4194Z" fill="black"/>
<path d="M35.4194 11.6129C35.74 11.6129 36 11.8729 36 12.1935V14.5161C36 14.8368 35.74 15.0968 35.4194 15.0968H0.580645C0.259964 15.0968 0 14.8368 0 14.5161V12.1935C0 11.8729 0.259964 11.6129 0.580645 11.6129H35.4194ZM1.16129 13.9355H34.8387V12.7742H1.16129V13.9355Z" fill="black"/>
<path d="M34.2581 2.32258C34.5787 2.32258 34.8387 2.58254 34.8387 2.90323V5.22581C34.8387 5.54649 34.5787 5.80645 34.2581 5.80645H1.74194C1.42125 5.80645 1.16129 5.54649 1.16129 5.22581V2.90323C1.16129 2.58254 1.42125 2.32258 1.74194 2.32258H34.2581ZM2.32258 4.64516H33.6774V3.48387H2.32258V4.64516Z" fill="black"/>
<path d="M31.3548 9.29032V10.4516H25.5484V9.29032H31.3548Z" fill="black"/>
<path d="M24.3871 9.29032V10.4516H23.2258V9.29032H24.3871Z" fill="black"/>
<path d="M33.0968 4.64516C33.4175 4.64516 33.6774 4.90513 33.6774 5.22581V12.1935C33.6774 12.5142 33.4175 12.7742 33.0968 12.7742H2.90323C2.58254 12.7742 2.32258 12.5142 2.32258 12.1935V5.22581C2.32258 4.90513 2.58254 4.64516 2.90323 4.64516H33.0968ZM3.48387 11.6129H32.5161V5.80645H3.48387V11.6129Z" fill="black"/>
<path d="M30.7742 0C30.9282 0 31.0759 0.0611734 31.1848 0.170066L33.5074 2.49265L32.6862 3.31381L30.5337 1.16129H5.46632L3.31381 3.31381L2.49265 2.49265L4.81523 0.170066L4.82557 0.159995C4.93338 0.0574149 5.07663 0 5.22581 0H30.7742Z" fill="black"/>
<path d="M34.2581 13.9355C34.5787 13.9355 34.8387 14.1954 34.8387 14.5161V24.9677C34.8387 25.2884 34.5787 25.5484 34.2581 25.5484H29.0323V24.3871H33.6774V15.0968H2.32258V24.3871H6.96774V25.5484H1.74194C1.42125 25.5484 1.16129 25.2884 1.16129 24.9677V14.5161C1.16129 14.1954 1.42125 13.9355 1.74194 13.9355H34.2581Z" fill="black"/>
<path d="M15.0968 24.3871V25.5484H12.7742V24.3871H15.0968Z" fill="black"/>
<path d="M23.2258 24.3871V25.5484H20.9032V24.3871H23.2258Z" fill="black"/>
</svg>
