<svg width="46" height="36" viewBox="0 0 46 36" fill="none" xmlns="http://www.w3.org/2000/svg">
<path d="M29.9966 4.92961H26.0382V0.979766C26.0382 0.441151 25.5961 0 25.0563 0H20.9385C20.3987 0 19.9566 0.441151 19.9566 0.979766V4.92961H15.9982C15.4584 4.92961 15.0163 5.37076 15.0163 5.90937V10.0182C15.0163 10.5569 15.4584 10.998 15.9982 10.998H19.9566V24.7404H26.0331V10.998H29.9915C30.5313 10.998 30.9734 10.5569 30.9734 10.0182V5.90937C30.9785 5.37076 30.5364 4.92961 29.9966 4.92961Z" fill="#A4A9AD"/>
<path d="M26.0382 7.22257H23.7403V4.92961C23.7403 4.51924 23.4061 4.19094 23 4.19094C22.5887 4.19094 22.2597 4.52437 22.2597 4.92961V7.22257H19.9618C19.5505 7.22257 19.2215 7.556 19.2215 7.96124C19.2215 8.37161 19.5557 8.69991 19.9618 8.69991H22.2597V14.1938C22.2597 14.6042 22.5939 14.9325 23 14.9325C23.4113 14.9325 23.7403 14.599 23.7403 14.1938V8.70504H26.0382C26.4495 8.70504 26.7785 8.37161 26.7785 7.96637C26.7836 7.556 26.4495 7.22257 26.0382 7.22257Z" fill="#D1D3D3"/>
<path d="M19.9618 21.4625H26.0382V24.7404H19.9618V21.4625Z" fill="black"/>
<path d="M16.7282 8.91536C16.7282 9.02556 16.7721 9.13124 16.8502 9.20916C16.9283 9.28709 17.0342 9.33086 17.1446 9.33086C17.255 9.33086 17.361 9.28709 17.4391 9.20916C17.5171 9.13124 17.561 9.02556 17.561 8.91536C17.561 8.80516 17.5171 8.69948 17.4391 8.62155C17.361 8.54363 17.255 8.49986 17.1446 8.49986C17.0342 8.49986 16.9283 8.54363 16.8502 8.62155C16.7721 8.69948 16.7282 8.80516 16.7282 8.91536Z" fill="black"/>
<path d="M21.576 1.75947C21.576 1.86967 21.6199 1.97536 21.698 2.05328C21.776 2.1312 21.882 2.17498 21.9924 2.17498C22.1028 2.17498 22.2088 2.1312 22.2868 2.05328C22.3649 1.97536 22.4088 1.86967 22.4088 1.75947C22.4088 1.64928 22.3649 1.54359 22.2868 1.46567C22.2088 1.38775 22.1028 1.34397 21.9924 1.34397C21.882 1.34397 21.776 1.38775 21.698 1.46567C21.6199 1.54359 21.576 1.64928 21.576 1.75947Z" fill="black"/>
<path d="M28.439 8.49986C28.439 8.61005 28.4828 8.71574 28.5609 8.79366C28.639 8.87158 28.7449 8.91536 28.8554 8.91536C28.9658 8.91536 29.0717 8.87158 29.1498 8.79366C29.2279 8.71574 29.2718 8.61005 29.2718 8.49986C29.2718 8.38966 29.2279 8.28397 29.1498 8.20605C29.0717 8.12813 28.9658 8.08436 28.8554 8.08436C28.7449 8.08436 28.639 8.12813 28.5609 8.20605C28.4828 8.28397 28.439 8.38966 28.439 8.49986Z" fill="black"/>
<path d="M21.1596 18.3334C21.1596 18.4436 21.2035 18.5493 21.2815 18.6272C21.3596 18.7052 21.4656 18.7489 21.576 18.7489C21.6864 18.7489 21.7923 18.7052 21.8704 18.6272C21.9485 18.5493 21.9924 18.4436 21.9924 18.3334C21.9924 18.2232 21.9485 18.1175 21.8704 18.0396C21.7923 17.9617 21.6864 17.9179 21.576 17.9179C21.4656 17.9179 21.3596 17.9617 21.2815 18.0396C21.2035 18.1175 21.1596 18.2232 21.1596 18.3334Z" fill="black"/>
<path d="M23.3342 14.6144C23.3342 14.7246 23.378 14.8303 23.4561 14.9082C23.5342 14.9861 23.6401 15.0299 23.7506 15.0299C23.861 15.0299 23.9669 14.9861 24.045 14.9082C24.1231 14.8303 24.167 14.7246 24.167 14.6144C24.167 14.5042 24.1231 14.3985 24.045 14.3206C23.9669 14.2427 23.861 14.1989 23.7506 14.1989C23.6401 14.1989 23.5342 14.2427 23.4561 14.3206C23.378 14.3985 23.3342 14.5042 23.3342 14.6144Z" fill="black"/>
<path d="M21.576 10.9826C21.576 11.0928 21.6199 11.1985 21.698 11.2764C21.776 11.3543 21.882 11.3981 21.9924 11.3981C22.1028 11.3981 22.2088 11.3543 22.2868 11.2764C22.3649 11.1985 22.4088 11.0928 22.4088 10.9826C22.4088 10.8724 22.3649 10.7667 22.2868 10.6888C22.2088 10.6109 22.1028 10.5671 21.9924 10.5671C21.882 10.5671 21.776 10.6109 21.698 10.6888C21.6199 10.7667 21.576 10.8724 21.576 10.9826Z" fill="black"/>
<path d="M24.4703 21.4625C24.4703 21.5727 24.5141 21.6784 24.5922 21.7563C24.6703 21.8342 24.7762 21.878 24.8867 21.878C24.9971 21.878 25.103 21.8342 25.1811 21.7563C25.2592 21.6784 25.3031 21.5727 25.3031 21.4625C25.3031 21.3523 25.2592 21.2466 25.1811 21.1687C25.103 21.0908 24.9971 21.047 24.8867 21.047C24.7762 21.047 24.6703 21.0908 24.5922 21.1687C24.5141 21.2466 24.4703 21.3523 24.4703 21.4625Z" fill="black"/>
<path d="M22.9177 7.21231C22.9177 7.26688 22.9285 7.32091 22.9494 7.37132C22.9704 7.42173 23.001 7.46753 23.0397 7.50611C23.0784 7.5447 23.1243 7.5753 23.1748 7.59618C23.2253 7.61707 23.2795 7.62781 23.3342 7.62781C23.3888 7.62781 23.443 7.61707 23.4935 7.59618C23.544 7.5753 23.5899 7.5447 23.6286 7.50611C23.6673 7.46753 23.6979 7.42173 23.7189 7.37132C23.7398 7.32091 23.7506 7.26688 23.7506 7.21231C23.7506 7.15775 23.7398 7.10371 23.7189 7.0533C23.6979 7.00289 23.6673 6.95709 23.6286 6.91851C23.5899 6.87992 23.544 6.84932 23.4935 6.82844C23.443 6.80755 23.3888 6.79681 23.3342 6.79681C23.2795 6.79681 23.2253 6.80755 23.1748 6.82844C23.1243 6.84932 23.0784 6.87992 23.0397 6.91851C23.001 6.95709 22.9704 7.00289 22.9494 7.0533C22.9285 7.10371 22.9177 7.15775 22.9177 7.21231Z" fill="black"/>
<path d="M26.8967 6.00684C26.8967 6.11704 26.9406 6.22272 27.0187 6.30064C27.0968 6.37857 27.2027 6.42234 27.3131 6.42234C27.4236 6.42234 27.5295 6.37857 27.6076 6.30064C27.6857 6.22272 27.7295 6.11704 27.7295 6.00684C27.7295 5.89664 27.6857 5.79096 27.6076 5.71303C27.5295 5.63511 27.4236 5.59134 27.3131 5.59134C27.2027 5.59134 27.0968 5.63511 27.0187 5.71303C26.9406 5.79096 26.8967 5.89664 26.8967 6.00684Z" fill="black"/>
<path d="M34.3715 29.0596V24.5865C34.3715 23.7811 33.7083 23.1194 32.9012 23.1194H13.1039C12.2968 23.1194 11.6337 23.7811 11.6337 24.5865V29.0596H34.3715Z" fill="#D1D3D3"/>
<path d="M14.384 24.7404C14.384 24.8506 14.4279 24.9563 14.506 25.0342C14.584 25.1121 14.69 25.1559 14.8004 25.1559C14.9108 25.1559 15.0168 25.1121 15.0948 25.0342C15.1729 24.9563 15.2168 24.8506 15.2168 24.7404C15.2168 24.6302 15.1729 24.5245 15.0948 24.4466C15.0168 24.3687 14.9108 24.3249 14.8004 24.3249C14.69 24.3249 14.584 24.3687 14.506 24.4466C14.4279 24.5245 14.384 24.6302 14.384 24.7404Z" fill="black"/>
<path d="M19.5454 26.505C19.5454 26.6152 19.5892 26.7209 19.6673 26.7988C19.7454 26.8767 19.8513 26.9205 19.9618 26.9205C20.0722 26.9205 20.1781 26.8767 20.2562 26.7988C20.3343 26.7209 20.3782 26.6152 20.3782 26.505C20.3782 26.3948 20.3343 26.2891 20.2562 26.2112C20.1781 26.1333 20.0722 26.0895 19.9618 26.0895C19.8513 26.0895 19.7454 26.1333 19.6673 26.2112C19.5892 26.2891 19.5454 26.3948 19.5454 26.505Z" fill="black"/>
<path d="M24.5114 24.7404C24.5114 24.8506 24.5553 24.9563 24.6334 25.0342C24.7114 25.1121 24.8174 25.1559 24.9278 25.1559C25.0382 25.1559 25.1442 25.1121 25.2222 25.0342C25.3003 24.9563 25.3442 24.8506 25.3442 24.7404C25.3442 24.6302 25.3003 24.5245 25.2222 24.4466C25.1442 24.3687 25.0382 24.3249 24.9278 24.3249C24.8174 24.3249 24.7114 24.3687 24.6334 24.4466C24.5553 24.5245 24.5114 24.6302 24.5114 24.7404Z" fill="black"/>
<path d="M31.323 25.8689C31.323 25.9791 31.3668 26.0848 31.4449 26.1627C31.523 26.2406 31.6289 26.2844 31.7394 26.2844C31.8498 26.2844 31.9557 26.2406 32.0338 26.1627C32.1119 26.0848 32.1558 25.9791 32.1558 25.8689C32.1558 25.7587 32.1119 25.653 32.0338 25.5751C31.9557 25.4972 31.8498 25.4534 31.7394 25.4534C31.6289 25.4534 31.523 25.4972 31.4449 25.5751C31.3668 25.653 31.323 25.7587 31.323 25.8689Z" fill="black"/>
<path d="M11.6285 26.6486H34.3663V29.0596H11.6285V26.6486Z" fill="black"/>
<path d="M44.2624 34.0199V29.5571C44.2624 28.7518 43.5992 28.0901 42.7921 28.0901H3.20787C2.40076 28.0901 1.73759 28.7518 1.73759 29.5571V34.0199H44.2624Z" fill="#A4A9AD"/>
<path d="M4.66786 31.6706C4.66786 31.7808 4.71173 31.8864 4.78982 31.9644C4.86791 32.0423 4.97383 32.0861 5.08426 32.0861C5.1947 32.0861 5.30062 32.0423 5.37871 31.9644C5.4568 31.8864 5.50067 31.7808 5.50067 31.6706C5.50067 31.5604 5.4568 31.4547 5.37871 31.3768C5.30062 31.2988 5.1947 31.2551 5.08426 31.2551C4.97383 31.2551 4.86791 31.2988 4.78982 31.3768C4.71173 31.4547 4.66786 31.5604 4.66786 31.6706Z" fill="black"/>
<path d="M9.31515 29.4186C9.31515 29.5288 9.35902 29.6345 9.43712 29.7124C9.51521 29.7904 9.62112 29.8341 9.73156 29.8341C9.842 29.8341 9.94791 29.7904 10.026 29.7124C10.1041 29.6345 10.148 29.5288 10.148 29.4186C10.148 29.3084 10.1041 29.2028 10.026 29.1248C9.94791 29.0469 9.842 29.0031 9.73156 29.0031C9.62112 29.0031 9.51521 29.0469 9.43712 29.1248C9.35902 29.2028 9.31515 29.3084 9.31515 29.4186Z" fill="black"/>
<path d="M19.5454 32.0861C19.5454 32.1963 19.5892 32.3019 19.6673 32.3799C19.7454 32.4578 19.8513 32.5016 19.9618 32.5016C20.0722 32.5016 20.1781 32.4578 20.2562 32.3799C20.3343 32.3019 20.3782 32.1963 20.3782 32.0861C20.3782 31.9759 20.3343 31.8702 20.2562 31.7923C20.1781 31.7143 20.0722 31.6706 19.9618 31.6706C19.8513 31.6706 19.7454 31.7143 19.6673 31.7923C19.5892 31.8702 19.5454 31.9759 19.5454 32.0861Z" fill="black"/>
<path d="M30.5621 30.6908C30.5621 30.801 30.606 30.9067 30.6841 30.9846C30.7622 31.0625 30.8681 31.1063 30.9785 31.1063C31.089 31.1063 31.1949 31.0625 31.273 30.9846C31.3511 30.9067 31.3949 30.801 31.3949 30.6908C31.3949 30.5806 31.3511 30.4749 31.273 30.397C31.1949 30.3191 31.089 30.2753 30.9785 30.2753C30.8681 30.2753 30.7622 30.3191 30.6841 30.397C30.606 30.4749 30.5621 30.5806 30.5621 30.6908Z" fill="black"/>
<path d="M41.7691 32.5016C41.7691 32.6118 41.813 32.7174 41.8911 32.7954C41.9692 32.8733 42.0751 32.9171 42.1855 32.9171C42.296 32.9171 42.4019 32.8733 42.48 32.7954C42.558 32.7174 42.6019 32.6118 42.6019 32.5016C42.6019 32.3914 42.558 32.2857 42.48 32.2078C42.4019 32.1298 42.296 32.0861 42.1855 32.0861C42.0751 32.0861 41.9692 32.1298 41.8911 32.2078C41.813 32.2857 41.7691 32.3914 41.7691 32.5016Z" fill="black"/>
<path d="M39.6254 29.4186C39.6254 29.5288 39.6693 29.6345 39.7474 29.7124C39.8254 29.7904 39.9314 29.8341 40.0418 29.8341C40.1522 29.8341 40.2581 29.7904 40.3362 29.7124C40.4143 29.6345 40.4582 29.5288 40.4582 29.4186C40.4582 29.3084 40.4143 29.2028 40.3362 29.1248C40.2581 29.0469 40.1522 29.0031 40.0418 29.0031C39.9314 29.0031 39.8254 29.0469 39.7474 29.1248C39.6693 29.2028 39.6254 29.3084 39.6254 29.4186Z" fill="black"/>
<path d="M6.37461 28.0849C8.23044 28.0849 9.73156 26.5871 9.73156 24.7353C9.73156 21.8267 8.77023 10.8441 7.29995 7.92533C7.12517 7.58678 6.86813 7.32516 6.37461 7.32516C5.88109 7.32516 5.62405 7.58678 5.44926 7.92533C3.97899 10.8492 3.01766 21.8319 3.01766 24.7353C3.01766 26.5871 4.52392 28.0849 6.37461 28.0849Z" fill="#D1D3D3"/>
<path d="M4.25145 26.0895C4.25145 26.1997 4.29532 26.3054 4.37341 26.3833C4.45151 26.4612 4.55742 26.505 4.66786 26.505C4.7783 26.505 4.88421 26.4612 4.9623 26.3833C5.04039 26.3054 5.08426 26.1997 5.08426 26.0895C5.08426 25.9793 5.04039 25.8736 4.9623 25.7957C4.88421 25.7178 4.7783 25.674 4.66786 25.674C4.55742 25.674 4.45151 25.7178 4.37341 25.7957C4.29532 25.8736 4.25145 25.9793 4.25145 26.0895Z" fill="black"/>
<path d="M7.77805 17.287C7.77805 17.3972 7.82192 17.5029 7.90001 17.5808C7.9781 17.6587 8.08402 17.7025 8.19446 17.7025C8.30489 17.7025 8.41081 17.6587 8.4889 17.5808C8.56699 17.5029 8.61086 17.3972 8.61086 17.287C8.61086 17.1768 8.56699 17.0711 8.4889 16.9932C8.41081 16.9152 8.30489 16.8715 8.19446 16.8715C8.08402 16.8715 7.9781 16.9152 7.90001 16.9932C7.82192 17.0711 7.77805 17.1768 7.77805 17.287Z" fill="black"/>
<path d="M6.37461 21.878C6.37461 21.9326 6.38538 21.9866 6.40631 22.037C6.42723 22.0874 6.4579 22.1333 6.49657 22.1718C6.53524 22.2104 6.58114 22.241 6.63166 22.2619C6.68218 22.2828 6.73633 22.2935 6.79101 22.2935C6.8457 22.2935 6.89985 22.2828 6.95037 22.2619C7.00089 22.241 7.04679 22.2104 7.08546 22.1718C7.12412 22.1333 7.1548 22.0874 7.17572 22.037C7.19665 21.9866 7.20742 21.9326 7.20742 21.878C7.20742 21.8235 7.19665 21.7694 7.17572 21.719C7.1548 21.6686 7.12412 21.6228 7.08546 21.5842C7.04679 21.5456 7.00089 21.515 6.95037 21.4942C6.89985 21.4733 6.8457 21.4625 6.79101 21.4625C6.73633 21.4625 6.68218 21.4733 6.63166 21.4942C6.58114 21.515 6.53524 21.5456 6.49657 21.5842C6.4579 21.6228 6.42723 21.6686 6.40631 21.719C6.38538 21.7694 6.37461 21.8235 6.37461 21.878Z" fill="black"/>
<path d="M5.9582 11.3981C5.9582 11.5083 6.00207 11.614 6.08016 11.6919C6.15826 11.7698 6.26417 11.8136 6.37461 11.8136C6.48505 11.8136 6.59096 11.7698 6.66905 11.6919C6.74714 11.614 6.79101 11.5083 6.79101 11.3981C6.79101 11.2879 6.74714 11.1822 6.66905 11.1043C6.59096 11.0264 6.48505 10.9826 6.37461 10.9826C6.26417 10.9826 6.15826 11.0264 6.08016 11.1043C6.00207 11.1822 5.9582 11.2879 5.9582 11.3981Z" fill="black"/>
<path d="M39.6254 28.0849C37.7696 28.0849 36.2684 26.5871 36.2684 24.7353C36.2684 21.8267 37.2298 10.8441 38.7 7.92533C38.8748 7.58678 39.1319 7.32516 39.6254 7.32516C40.1189 7.32516 40.3759 7.58678 40.5507 7.92533C42.021 10.8492 42.9823 21.8319 42.9823 24.7353C42.9823 26.5871 41.4812 28.0849 39.6254 28.0849Z" fill="#D1D3D3"/>
<path d="M39.6254 24.3249C39.6254 24.4351 39.6693 24.5408 39.7474 24.6187C39.8254 24.6966 39.9314 24.7404 40.0418 24.7404C40.1522 24.7404 40.2581 24.6966 40.3362 24.6187C40.4143 24.5408 40.4582 24.4351 40.4582 24.3249C40.4582 24.2147 40.4143 24.109 40.3362 24.0311C40.2581 23.9532 40.1522 23.9094 40.0418 23.9094C39.9314 23.9094 39.8254 23.9532 39.7474 24.0311C39.6693 24.109 39.6254 24.2147 39.6254 24.3249Z" fill="black"/>
<path d="M40.0418 12.3728C40.0418 12.483 40.0857 12.5886 40.1638 12.6666C40.2418 12.7445 40.3478 12.7883 40.4582 12.7883C40.5686 12.7883 40.6746 12.7445 40.7526 12.6666C40.8307 12.5886 40.8746 12.483 40.8746 12.3728C40.8746 12.2626 40.8307 12.1569 40.7526 12.0789C40.6746 12.001 40.5686 11.9573 40.4582 11.9573C40.3478 11.9573 40.2418 12.001 40.1638 12.0789C40.0857 12.1569 40.0418 12.2626 40.0418 12.3728Z" fill="black"/>
<path d="M38.1911 17.7025C38.1911 17.8127 38.235 17.9184 38.3131 17.9963C38.3912 18.0742 38.4971 18.118 38.6075 18.118C38.7179 18.118 38.8239 18.0742 38.902 17.9963C38.98 17.9184 39.0239 17.8127 39.0239 17.7025C39.0239 17.5923 38.98 17.4866 38.902 17.4087C38.8239 17.3308 38.7179 17.287 38.6075 17.287C38.4971 17.287 38.3912 17.3308 38.3131 17.4087C38.235 17.4866 38.1911 17.5923 38.1911 17.7025Z" fill="black"/>
<path d="M1.73759 31.8655H44.2624V34.0199H1.73759V31.8655Z" fill="black"/>
<path d="M46 35.5178C46 35.7846 45.7841 36 45.5168 36H0.483236C0.215914 36 0 35.7846 0 35.5178V33.7891C0 33.5224 0.215914 33.3069 0.483236 33.3069H45.5168C45.7841 33.3069 46 33.5224 46 33.7891V35.5178Z" fill="#00AD68"/>
</svg>
