<svg width="36" height="36" viewBox="0 0 36 36" fill="none" xmlns="http://www.w3.org/2000/svg">
<path d="M31.9355 29.6129C32.8595 29.6129 33.7456 29.98 34.399 30.6333C35.0523 31.2867 35.4194 32.1728 35.4194 33.0968V35.4194H28.4516V33.0968C28.4516 32.1728 28.8187 31.2867 29.472 30.6333C30.1254 29.98 31.0115 29.6129 31.9355 29.6129Z" fill="#7C6749"/>
<path d="M31.0645 29.729C30.3176 29.9219 29.6558 30.3572 29.1829 30.9667C28.71 31.5762 28.4528 32.3254 28.4516 33.0968V35.4194H33.6774V33.0968C33.6762 32.3254 33.419 31.5762 32.9461 30.9667C32.4732 30.3572 31.8114 29.9219 31.0645 29.729Z" fill="#A58961"/>
<path d="M24.9677 29.6129C25.8917 29.6129 26.7779 29.98 27.4312 30.6333C28.0846 31.2867 28.4516 32.1728 28.4516 33.0968V35.4194H21.4839V33.0968C21.4839 32.1728 21.8509 31.2867 22.5043 30.6333C23.1576 29.98 24.0438 29.6129 24.9677 29.6129Z" fill="#7C6749"/>
<path d="M24.0968 29.729C23.3499 29.9219 22.6881 30.3572 22.2152 30.9667C21.7423 31.5762 21.4851 32.3254 21.4839 33.0968V35.4194H26.7097V33.0968C26.7085 32.3254 26.4512 31.5762 25.9784 30.9667C25.5055 30.3572 24.8437 29.9219 24.0968 29.729Z" fill="#A58961"/>
<path d="M18 29.6129C18.924 29.6129 19.8101 29.98 20.4635 30.6333C21.1168 31.2867 21.4839 32.1728 21.4839 33.0968V35.4194H14.5161V33.0968C14.5161 32.1728 14.8832 31.2867 15.5365 30.6333C16.1899 29.98 17.076 29.6129 18 29.6129Z" fill="#7C6749"/>
<path d="M17.129 29.729C16.3821 29.9219 15.7203 30.3572 15.2474 30.9667C14.7746 31.5762 14.5173 32.3254 14.5161 33.0968V35.4194H19.7419V33.0968C19.7407 32.3254 19.4835 31.5762 19.0106 30.9667C18.5377 30.3572 17.876 29.9219 17.129 29.729Z" fill="#A58961"/>
<path d="M11.0323 29.6129C11.9562 29.6129 12.8424 29.98 13.4957 30.6333C14.1491 31.2867 14.5161 32.1728 14.5161 33.0968V35.4194H7.54839V33.0968C7.54839 32.1728 7.91544 31.2867 8.56879 30.6333C9.22214 29.98 10.1083 29.6129 11.0323 29.6129Z" fill="#7C6749"/>
<path d="M10.1613 29.729C9.41437 29.9219 8.75258 30.3572 8.2797 30.9667C7.80682 31.5762 7.54961 32.3254 7.54839 33.0968V35.4194H12.7742V33.0968C12.773 32.3254 12.5158 31.5762 12.0429 30.9667C11.57 30.3572 10.9082 29.9219 10.1613 29.729Z" fill="#A58961"/>
<path d="M4.06452 29.6129C4.9885 29.6129 5.87463 29.98 6.52798 30.6333C7.18134 31.2867 7.54839 32.1728 7.54839 33.0968V35.4194H0.580645V33.0968C0.580645 32.1728 0.947695 31.2867 1.60105 30.6333C2.2544 29.98 3.14054 29.6129 4.06452 29.6129Z" fill="#7C6749"/>
<path d="M3.19355 29.729C2.44663 29.9219 1.78483 30.3572 1.31196 30.9667C0.83908 31.5762 0.581864 32.3254 0.580645 33.0968V35.4194H5.80645V33.0968C5.80523 32.3254 5.54802 31.5762 5.07514 30.9667C4.60226 30.3572 3.94047 29.9219 3.19355 29.729Z" fill="#A58961"/>
<path d="M31.9355 29.6129C33.2182 29.6129 34.2581 28.573 34.2581 27.2903C34.2581 26.0076 33.2182 24.9677 31.9355 24.9677C30.6528 24.9677 29.6129 26.0076 29.6129 27.2903C29.6129 28.573 30.6528 29.6129 31.9355 29.6129Z" fill="#7C6749"/>
<path d="M31.0645 29.4387C31.8662 29.4387 32.5161 28.4768 32.5161 27.2903C32.5161 26.1038 31.8662 25.1419 31.0645 25.1419C30.2628 25.1419 29.6129 26.1038 29.6129 27.2903C29.6129 28.4768 30.2628 29.4387 31.0645 29.4387Z" fill="#A58961"/>
<path d="M24.9677 29.6129C26.2505 29.6129 27.2903 28.573 27.2903 27.2903C27.2903 26.0076 26.2505 24.9677 24.9677 24.9677C23.685 24.9677 22.6452 26.0076 22.6452 27.2903C22.6452 28.573 23.685 29.6129 24.9677 29.6129Z" fill="#7C6749"/>
<path d="M24.0968 29.4387C24.8985 29.4387 25.5484 28.4768 25.5484 27.2903C25.5484 26.1038 24.8985 25.1419 24.0968 25.1419C23.2951 25.1419 22.6452 26.1038 22.6452 27.2903C22.6452 28.4768 23.2951 29.4387 24.0968 29.4387Z" fill="#A58961"/>
<path d="M18 29.6129C19.2827 29.6129 20.3226 28.573 20.3226 27.2903C20.3226 26.0076 19.2827 24.9677 18 24.9677C16.7173 24.9677 15.6774 26.0076 15.6774 27.2903C15.6774 28.573 16.7173 29.6129 18 29.6129Z" fill="#7C6749"/>
<path d="M17.129 29.4387C17.9307 29.4387 18.5806 28.4768 18.5806 27.2903C18.5806 26.1038 17.9307 25.1419 17.129 25.1419C16.3273 25.1419 15.6774 26.1038 15.6774 27.2903C15.6774 28.4768 16.3273 29.4387 17.129 29.4387Z" fill="#A58961"/>
<path d="M11.0323 29.6129C12.315 29.6129 13.3548 28.573 13.3548 27.2903C13.3548 26.0076 12.315 24.9677 11.0323 24.9677C9.74953 24.9677 8.70968 26.0076 8.70968 27.2903C8.70968 28.573 9.74953 29.6129 11.0323 29.6129Z" fill="#7C6749"/>
<path d="M10.1613 29.4387C10.963 29.4387 11.6129 28.4768 11.6129 27.2903C11.6129 26.1038 10.963 25.1419 10.1613 25.1419C9.35959 25.1419 8.70968 26.1038 8.70968 27.2903C8.70968 28.4768 9.35959 29.4387 10.1613 29.4387Z" fill="#A58961"/>
<path d="M4.06452 29.6129C5.34724 29.6129 6.3871 28.573 6.3871 27.2903C6.3871 26.0076 5.34724 24.9677 4.06452 24.9677C2.78179 24.9677 1.74194 26.0076 1.74194 27.2903C1.74194 28.573 2.78179 29.6129 4.06452 29.6129Z" fill="#7C6749"/>
<path d="M3.19355 29.4387C3.99525 29.4387 4.64516 28.4768 4.64516 27.2903C4.64516 26.1038 3.99525 25.1419 3.19355 25.1419C2.39184 25.1419 1.74194 26.1038 1.74194 27.2903C1.74194 28.4768 2.39184 29.4387 3.19355 29.4387Z" fill="#A58961"/>
<path d="M18 22.6452C24.0929 22.6452 29.0323 17.7059 29.0323 11.6129C29.0323 5.51996 24.0929 0.580645 18 0.580645C11.9071 0.580645 6.96774 5.51996 6.96774 11.6129C6.96774 17.7059 11.9071 22.6452 18 22.6452Z" fill="#7C6749"/>
<path d="M17.129 22.5987C22.741 22.5987 27.2903 17.6802 27.2903 11.6129C27.2903 5.54561 22.741 0.627097 17.129 0.627097C11.5171 0.627097 6.96774 5.54561 6.96774 11.6129C6.96774 17.6802 11.5171 22.5987 17.129 22.5987Z" fill="#A58961"/>
<path d="M20.3226 6.96774C19.7816 6.78764 19.2901 6.48397 18.8869 6.08082C18.4838 5.67766 18.1801 5.18611 18 4.64516C17.8199 5.18611 17.5162 5.67766 17.1131 6.08082C16.7099 6.48397 16.2184 6.78764 15.6774 6.96774C16.2184 7.14784 16.7099 7.45151 17.1131 7.85467C17.5162 8.25782 17.8199 8.74937 18 9.29032C18.1801 8.74937 18.4838 8.25782 18.8869 7.85467C19.2901 7.45151 19.7816 7.14784 20.3226 6.96774Z" fill="#F5EBE0"/>
<path d="M22.0645 12.7742L22.6452 6.96774C22.6452 6.65975 22.7675 6.36437 22.9853 6.14659C23.2031 5.9288 23.4985 5.80645 23.8065 5.80645C24.1144 5.80645 24.4098 5.9288 24.6276 6.14659C24.8454 6.36437 24.9677 6.65975 24.9677 6.96774V14.5161L22.6452 16.8387V18.5806H18V13.3548L20.3226 11.0323H21.4839L22.0645 11.6129V12.7742L20.3226 14.5161L22.0645 12.7742Z" fill="#FCC062"/>
<path d="M13.9355 12.7742L13.3548 6.96774C13.3548 6.65975 13.2325 6.36437 13.0147 6.14659C12.7969 5.9288 12.5015 5.80645 12.1935 5.80645C11.8856 5.80645 11.5902 5.9288 11.3724 6.14659C11.1546 6.36437 11.0323 6.65975 11.0323 6.96774V14.5161L13.3548 16.8387V18.5806H18V13.3548L15.6774 11.0323H14.5161L13.9355 11.6129V12.7742L15.6774 14.5161L13.9355 12.7742Z" fill="#FCC062"/>
<path d="M34.8387 33.0968C34.8387 32.3268 34.5328 31.5883 33.9884 31.0439C33.4524 30.5079 32.7285 30.2032 31.9715 30.1938L31.9355 30.1935C31.1655 30.1935 30.427 30.4994 29.8826 31.0439C29.3381 31.5883 29.0323 32.3268 29.0323 33.0968V34.8387H34.8387V33.0968ZM36 35.4194C36 35.74 35.74 36 35.4194 36H28.4516C28.1309 36 27.871 35.74 27.871 35.4194V33.0968C27.871 32.0188 28.2992 30.985 29.0614 30.2227C29.8237 29.4605 30.8575 29.0323 31.9355 29.0323L31.986 29.0326C33.0457 29.0457 34.0592 29.4724 34.8095 30.2227C35.5718 30.985 36 32.0188 36 33.0968V35.4194Z" fill="black"/>
<path d="M33.6774 27.2903C33.6774 26.3283 32.8975 25.5484 31.9355 25.5484C30.9734 25.5484 30.1935 26.3283 30.1935 27.2903C30.1935 28.2524 30.9734 29.0323 31.9355 29.0323C32.8975 29.0323 33.6774 28.2524 33.6774 27.2903ZM34.8387 27.2903C34.8387 28.8937 33.5389 30.1935 31.9355 30.1935C30.3321 30.1935 29.0323 28.8937 29.0323 27.2903C29.0323 25.6869 30.3321 24.3871 31.9355 24.3871C33.5389 24.3871 34.8387 25.6869 34.8387 27.2903Z" fill="black"/>
<path d="M27.871 33.0968C27.871 32.3268 27.5651 31.5883 27.0206 31.0439C26.4847 30.5079 25.7608 30.2032 25.0038 30.1938L24.9677 30.1935C24.1978 30.1935 23.4593 30.4994 22.9148 31.0439C22.3704 31.5883 22.0645 32.3268 22.0645 33.0968V34.8387H27.871V33.0968ZM29.0323 35.4194C29.0323 35.74 28.7723 36 28.4516 36H21.4839C21.1632 36 20.9032 35.74 20.9032 35.4194V33.0968C20.9032 32.0188 21.3314 30.985 22.0937 30.2227C22.8559 29.4605 23.8898 29.0323 24.9677 29.0323L25.0182 29.0326C26.078 29.0457 27.0915 29.4724 27.8418 30.2227C28.604 30.985 29.0323 32.0188 29.0323 33.0968V35.4194Z" fill="black"/>
<path d="M26.7097 27.2903C26.7097 26.3283 25.9298 25.5484 24.9677 25.5484C24.0057 25.5484 23.2258 26.3283 23.2258 27.2903C23.2258 28.2524 24.0057 29.0323 24.9677 29.0323C25.9298 29.0323 26.7097 28.2524 26.7097 27.2903ZM27.871 27.2903C27.871 28.8937 26.5711 30.1935 24.9677 30.1935C23.3643 30.1935 22.0645 28.8937 22.0645 27.2903C22.0645 25.6869 23.3643 24.3871 24.9677 24.3871C26.5711 24.3871 27.871 25.6869 27.871 27.2903Z" fill="black"/>
<path d="M20.9032 33.0968C20.9032 32.3268 20.5974 31.5883 20.0529 31.0439C19.5169 30.5079 18.793 30.2032 18.0361 30.1938L18 30.1935C17.23 30.1935 16.4916 30.4994 15.9471 31.0439C15.4026 31.5883 15.0968 32.3268 15.0968 33.0968V34.8387H20.9032V33.0968ZM22.0645 35.4194C22.0645 35.74 21.8046 36 21.4839 36H14.5161C14.1954 36 13.9355 35.74 13.9355 35.4194V33.0968C13.9355 32.0188 14.3637 30.985 15.1259 30.2227C15.8882 29.4605 16.922 29.0323 18 29.0323L18.0505 29.0326C19.1102 29.0457 20.1237 29.4724 20.8741 30.2227C21.6363 30.985 22.0645 32.0188 22.0645 33.0968V35.4194Z" fill="black"/>
<path d="M19.7419 27.2903C19.7419 26.3283 18.962 25.5484 18 25.5484C17.038 25.5484 16.2581 26.3283 16.2581 27.2903C16.2581 28.2524 17.038 29.0323 18 29.0323C18.962 29.0323 19.7419 28.2524 19.7419 27.2903ZM20.9032 27.2903C20.9032 28.8937 19.6034 30.1935 18 30.1935C16.3966 30.1935 15.0968 28.8937 15.0968 27.2903C15.0968 25.6869 16.3966 24.3871 18 24.3871C19.6034 24.3871 20.9032 25.6869 20.9032 27.2903Z" fill="black"/>
<path d="M13.9355 33.0968C13.9355 32.3268 13.6296 31.5883 13.0852 31.0439C12.5492 30.5079 11.8253 30.2032 11.0683 30.1938L11.0323 30.1935C10.2623 30.1935 9.52382 30.4994 8.97936 31.0439C8.4349 31.5883 8.12903 32.3268 8.12903 33.0968V34.8387H13.9355V33.0968ZM15.0968 35.4194C15.0968 35.74 14.8368 36 14.5161 36H7.54839C7.22771 36 6.96774 35.74 6.96774 35.4194V33.0968C6.96774 32.0188 7.39596 30.985 8.1582 30.2227C8.92045 29.4605 9.95428 29.0323 11.0323 29.0323L11.0827 29.0326C12.1425 29.0457 13.156 29.4724 13.9063 30.2227C14.6686 30.985 15.0968 32.0188 15.0968 33.0968V35.4194Z" fill="black"/>
<path d="M12.7742 27.2903C12.7742 26.3283 11.9943 25.5484 11.0323 25.5484C10.0702 25.5484 9.29032 26.3283 9.29032 27.2903C9.29032 28.2524 10.0702 29.0323 11.0323 29.0323C11.9943 29.0323 12.7742 28.2524 12.7742 27.2903ZM13.9355 27.2903C13.9355 28.8937 12.6357 30.1935 11.0323 30.1935C9.42885 30.1935 8.12903 28.8937 8.12903 27.2903C8.12903 25.6869 9.42885 24.3871 11.0323 24.3871C12.6357 24.3871 13.9355 25.6869 13.9355 27.2903Z" fill="black"/>
<path d="M6.96774 33.0968C6.96774 32.3268 6.66187 31.5883 6.11741 31.0439C5.58146 30.5079 4.85752 30.2032 4.10058 30.1938L4.06452 30.1935C3.29453 30.1935 2.55608 30.4994 2.01162 31.0439C1.46716 31.5883 1.16129 32.3268 1.16129 33.0968V34.8387H6.96774V33.0968ZM8.12903 35.4194C8.12903 35.74 7.86907 36 7.54839 36H0.580645C0.259964 36 0 35.74 0 35.4194V33.0968C0 32.0188 0.428214 30.985 1.19046 30.2227C1.9527 29.4605 2.98654 29.0323 4.06452 29.0323L4.11501 29.0326C5.17473 29.0457 6.18824 29.4724 6.93857 30.2227C7.70082 30.985 8.12903 32.0188 8.12903 33.0968V35.4194Z" fill="black"/>
<path d="M5.80645 27.2903C5.80645 26.3283 5.02656 25.5484 4.06452 25.5484C3.10247 25.5484 2.32258 26.3283 2.32258 27.2903C2.32258 28.2524 3.10247 29.0323 4.06452 29.0323C5.02656 29.0323 5.80645 28.2524 5.80645 27.2903ZM6.96774 27.2903C6.96774 28.8937 5.66792 30.1935 4.06452 30.1935C2.46111 30.1935 1.16129 28.8937 1.16129 27.2903C1.16129 25.6869 2.46111 24.3871 4.06452 24.3871C5.66792 24.3871 6.96774 25.6869 6.96774 27.2903Z" fill="black"/>
<path d="M12.1935 5.22581C12.6555 5.22581 13.0986 5.40933 13.4253 5.736C13.7442 6.05491 13.9265 6.48474 13.935 6.93481L14.2913 10.4969C14.3618 10.4673 14.4382 10.4516 14.5161 10.4516H15.6774C15.8314 10.4516 15.9791 10.5128 16.088 10.6217L18.4106 12.9443C18.5195 13.0532 18.5806 13.2008 18.5806 13.3548V18.5806C18.5806 18.9013 18.3207 19.1613 18 19.1613H13.3548C13.0342 19.1613 12.7742 18.9013 12.7742 18.5806V17.0792L10.6217 14.9267C10.5128 14.8178 10.4516 14.6701 10.4516 14.5161V6.96774C10.4516 6.50575 10.6351 6.06268 10.9618 5.736C11.2885 5.40933 11.7316 5.22581 12.1935 5.22581ZM11.6129 14.2756L13.7654 16.4281C13.8743 16.537 13.9355 16.6847 13.9355 16.8387V18H17.4194V13.5954L15.4369 11.6129H14.7566L14.5161 11.8534V12.5337L16.088 14.1055L15.2668 14.9267L13.5249 13.1848C13.4301 13.09 13.3711 12.9654 13.3577 12.832L12.7771 7.02553C12.7752 7.00634 12.7742 6.98704 12.7742 6.96774C12.7742 6.81375 12.713 6.66605 12.6041 6.55716C12.4952 6.44827 12.3475 6.3871 12.1935 6.3871C12.0396 6.3871 11.8919 6.44827 11.783 6.55716C11.6741 6.66605 11.6129 6.81375 11.6129 6.96774V14.2756Z" fill="black"/>
<path d="M24.3871 6.96774C24.3871 6.81374 24.3259 6.66605 24.217 6.55716C24.1081 6.44827 23.9604 6.3871 23.8065 6.3871C23.6525 6.3871 23.5048 6.44827 23.3959 6.55716C23.287 6.66605 23.2258 6.81374 23.2258 6.96774C23.2258 6.98704 23.2248 7.00634 23.2229 7.02553L22.6423 12.832C22.6289 12.9654 22.5699 13.09 22.4751 13.1848L20.7332 14.9267L19.912 14.1055L21.4839 12.5337V11.8534L21.2434 11.6129H20.5631L18.5806 13.5954V18H22.0645V16.8387C22.0645 16.6847 22.1257 16.537 22.2346 16.4281L24.3871 14.2756V6.96774ZM25.5484 14.5161C25.5484 14.6701 25.4872 14.8178 25.3783 14.9267L23.2258 17.0792V18.5806C23.2258 18.9013 22.9658 19.1613 22.6452 19.1613H18C17.6793 19.1613 17.4194 18.9013 17.4194 18.5806V13.3548C17.4194 13.2008 17.4805 13.0532 17.5894 12.9443L19.912 10.6217C20.0209 10.5128 20.1686 10.4516 20.3226 10.4516H21.4839C21.5618 10.4516 21.6382 10.4673 21.7087 10.4969L22.0649 6.93481C22.0734 6.48474 22.2558 6.05491 22.5747 5.736C22.9014 5.40933 23.3445 5.22581 23.8065 5.22581C24.2684 5.22581 24.7115 5.40933 25.0382 5.736C25.3649 6.06268 25.5484 6.50575 25.5484 6.96774V14.5161Z" fill="black"/>
<path d="M18 4.06452C18.25 4.06452 18.472 4.22456 18.5509 4.46176C18.7025 4.91711 18.9582 5.33087 19.2975 5.67023C19.6369 6.00959 20.0506 6.2652 20.506 6.41681C20.7432 6.49578 20.9032 6.71774 20.9032 6.96774C20.9032 7.21775 20.7432 7.4397 20.506 7.51867C20.0506 7.67028 19.6369 7.9259 19.2975 8.26526C18.9582 8.60462 18.7025 9.01837 18.5509 9.47373C18.472 9.71093 18.25 9.87097 18 9.87097C17.75 9.87097 17.528 9.71093 17.4491 9.47373C17.2975 9.01837 17.0418 8.60462 16.7025 8.26526C16.3631 7.9259 15.9494 7.67028 15.494 7.51867C15.2568 7.4397 15.0968 7.21775 15.0968 6.96774C15.0968 6.71774 15.2568 6.49578 15.494 6.41681C15.9494 6.2652 16.3631 6.00959 16.7025 5.67023C17.0418 5.33087 17.2975 4.91711 17.4491 4.46176C17.528 4.22456 17.75 4.06452 18 4.06452ZM18 5.92358C17.8585 6.12572 17.6992 6.3158 17.5236 6.49139C17.3481 6.66697 17.158 6.82623 16.9558 6.96774C17.158 7.10926 17.3481 7.26851 17.5236 7.4441C17.6992 7.61967 17.8585 7.80973 18 8.01186C18.1415 7.80973 18.3008 7.61967 18.4764 7.4441C18.6519 7.26852 18.842 7.10925 19.0441 6.96774C18.842 6.82623 18.6519 6.66696 18.4764 6.49139C18.3008 6.3158 18.1415 6.12572 18 5.92358Z" fill="black"/>
<path d="M28.4516 11.6129C28.4516 5.84064 23.7723 1.16129 18 1.16129C12.2277 1.16129 7.54839 5.84064 7.54839 11.6129C7.54839 17.3852 12.2277 22.0645 18 22.0645C23.7723 22.0645 28.4516 17.3852 28.4516 11.6129ZM29.6129 11.6129C29.6129 18.0265 24.4136 23.2258 18 23.2258C11.5864 23.2258 6.3871 18.0265 6.3871 11.6129C6.3871 5.19927 11.5864 0 18 0C24.4136 0 29.6129 5.19927 29.6129 11.6129Z" fill="black"/>
</svg>
