<svg width="512" height="512" viewBox="0 0 512 512" fill="none" xmlns="http://www.w3.org/2000/svg">
<g clip-path="url(#clip0_1206_120)">
<path d="M7.93304 378.624L317.002 461.435L399.81 152.376L90.7413 69.5647L7.93304 378.624Z" fill="#BCBCBC"/>
<path d="M261.291 216.018L237.932 220.8L220.089 204.987L196.715 209.768L178.872 193.941L205.058 99.866L287.478 121.959L261.291 216.018Z" fill="#E6E9ED"/>
<path d="M511.987 10.665C511.987 4.77403 507.206 0.0090332 501.316 0.0090332C498.988 0.0090332 496.832 0.759033 495.082 2.02503H495.066L399.505 71.085L314.289 389.162L334.897 394.678L418.161 83.929L507.564 19.322V19.306C510.237 17.368 511.987 14.227 511.987 10.665Z" fill="#E6E9ED"/>
<path d="M13.424 358.022C7.73595 356.506 1.89295 359.881 0.361951 365.568C-1.15305 371.256 2.22095 377.115 7.90895 378.63C7.92495 378.646 7.93995 378.646 7.93995 378.646L306.712 458.269L312.196 437.66L13.424 358.022Z" fill="#E6E9ED"/>
<path d="M247.386 431.394C238.245 465.535 258.51 500.626 292.651 509.783C326.79 518.924 361.883 498.674 371.023 464.535C380.179 430.394 359.915 395.303 325.774 386.146C291.635 377.006 256.541 397.256 247.386 431.394Z" fill="#434A54"/>
<path d="M330.055 453.91C327.008 465.285 315.306 472.051 303.931 468.988C292.557 465.941 285.807 454.254 288.854 442.879C291.901 431.488 303.603 424.739 314.978 427.786C326.351 430.832 333.101 442.535 330.055 453.91Z" fill="#E6E9ED"/>
</g>
<defs>
<clipPath id="clip0_1206_120">
<rect width="511.987" height="511.987" fill="white"/>
</clipPath>
</defs>
</svg>
