<svg width="800" height="733" viewBox="0 0 800 733" fill="none" xmlns="http://www.w3.org/2000/svg">
<path d="M553.762 567.35C586.837 522.725 678.338 383.025 660.138 225.738C654.5 177.025 604.5 151.987 576.662 141.725V130.837C576.662 130.837 538.425 115.213 533.862 111.188V75.6375C533.85 75.325 556.812 64.2125 556.812 64.2125V0.0875013C556.812 0.0875013 530.125 -21.4625 503.487 -28.6375V-35.65C503.487 -35.65 450.925 -42 400 -42C349.087 -42 296.525 -35.65 296.525 -35.65V-28.6375C269.887 -21.4625 243.187 0.0875013 243.187 0.0875013V64.2125C243.187 64.2125 266.15 75.325 266.162 75.35L266.137 111.175C261.562 115.225 223.338 130.837 223.338 130.837V141.725C195.513 151.987 145.512 177.025 139.862 225.738C121.662 383.025 213.162 522.725 246.225 567.35C237.351 573.05 229.273 579.901 222.2 587.725C204.7 607.412 199.4 627.762 207.95 642.212C215.15 654.35 225.412 664.912 238.475 673.725C272.587 696.787 325.412 708 400 708C474.587 708 527.412 696.787 561.55 673.712C574.575 664.925 584.837 654.35 592.025 642.275C600.612 627.763 595.3 607.4 577.85 587.787C570.761 579.939 562.661 573.067 553.762 567.35ZM320.625 -15.5375C320.625 -15.5375 342.65 -18.5125 400 -18.5125C457.35 -18.5125 479.375 -15.5375 479.375 -15.5375V-10.15H320.625V-15.5375ZM267.3 10.9625L267.837 10.5375C270.437 10.9875 275.487 11.825 283.375 12.8125C304.15 15.475 343.137 19.15 400 19.15C456.862 19.15 495.863 15.475 516.625 12.8125C524.5 11.825 529.562 10.9875 532.15 10.5375L532.688 10.9625V48.175C530.25 48.5375 524.863 49.3125 516.625 50.25C495.188 52.7375 454.975 56.2375 400 56.2375C345.025 56.2375 304.812 52.725 283.375 50.25C278.004 49.6544 272.645 48.9585 267.3 48.1625V10.9625ZM247.45 158.775V147.675C250.025 148.75 255.637 150.8 265.75 153.1C286.837 157.912 327.237 163.775 399.988 163.775C472.738 163.775 513.15 157.912 534.225 153.1C544.35 150.8 549.95 148.75 552.525 147.675V158.775L553.05 158.912C550.737 159.875 545.012 161.987 534.225 164.35C513.162 168.937 472.75 174.563 400 174.563C327.25 174.563 286.825 168.937 265.762 164.337C254.962 161.987 249.25 159.875 246.937 158.9L247.45 158.775ZM379.4 248.05C393.137 248.438 406.875 248.438 420.612 248.05L419.987 323.4C446.654 322.69 473.261 320.507 499.687 316.862L498.125 354.675C472.118 358.267 445.932 360.416 419.688 361.113C419.213 417.7 418.75 474.275 418.3 530.862C406.1 531.175 393.925 531.175 381.725 530.862C381.275 474.275 380.812 417.7 380.337 361.113C354.089 360.416 327.899 358.267 301.887 354.675C301.387 342.075 300.862 329.487 300.337 316.862C326.787 320.537 353.387 322.663 380.037 323.4C379.812 298.288 379.6 273.163 379.4 248.05ZM400 595.8C449.125 595.8 482.4 587.013 502.25 579.263C513.912 574.713 520.9 570.525 523.712 568.675V577.875C523.712 577.875 520.15 587.075 502.25 594.987C484.35 602.85 453.312 610.637 400 610.637C341.262 610.637 309.575 601.225 292.738 592.575C279.063 585.537 276.288 577.875 276.288 577.875V568.65C278.625 570.188 283.962 573.425 292.725 577.2H292.75C311.725 585.35 346.412 595.8 400 595.8ZM571.138 630.5C565.45 640.062 557.4 647.938 547.8 654.413C506.738 682.175 437.037 684.5 400 684.5C362.962 684.5 293.263 682.163 252.2 654.413C242.588 647.925 234.537 640.062 228.862 630.5C226.487 626.5 229.438 616.312 238.913 604.962C240.088 608.287 244.662 618.337 259.762 628.962C280.512 643.537 321.087 659.062 400 659.062C478.912 659.062 519.488 643.537 540.238 628.962C555.338 618.337 559.913 608.275 561.088 604.962C570.575 616.312 573.513 626.487 571.138 630.5Z" fill="#B8C2CC"/>
</svg>
