<svg width="65" height="61" viewBox="0 0 65 61" fill="none" xmlns="http://www.w3.org/2000/svg">
<path d="M64.153 39.3282V49.5982C64.153 50.3442 63.7982 51.0467 63.1978 51.4878L50.4858 60.892C50.3165 61.0172 50.0928 61.0336 49.9072 60.941L49.4159 60.6905V50.2353L64.153 39.3282Z" fill="#522F21"/>
<path d="M0.467044 23.493L9.46211 39.998C9.5549 40.1722 9.70227 40.3138 9.88239 40.4064L9.95335 29.9839L0.2378 12.9343V22.5999C0.2378 22.9103 0.314215 23.2153 0.467044 23.493Z" fill="#AB664B"/>
<path d="M50.2128 60.6088V50.219L9.60403 29.3903V39.7638C9.60403 40.0742 9.77869 40.3574 10.0516 40.499L49.7762 60.8756C49.9781 60.9737 50.2128 60.8321 50.2128 60.6088Z" fill="#874D36"/>
<path d="M63.6563 36.1971L38.2431 7.46171C38.0084 7.19488 37.7027 6.99885 37.3643 6.88994L16.072 0.0940818C15.7733 -0.00148972 15.4561 -0.0246673 15.1466 0.0264702C14.8372 0.0776077 14.5444 0.201587 14.2926 0.388133C14.2926 0.388133 1.48226 9.88491 1.41677 9.94481L1.39493 9.96115C0.2378 10.7888 -0.526344 12.8527 0.439753 14.6496L8.32135 29.1126C8.51239 29.4611 8.80167 29.7443 9.15646 29.924L48.8701 50.0284C49.5415 50.3715 50.3493 50.3061 50.9551 49.8596L64.4368 39.9054C65.2774 39.2846 65.2992 38.005 63.6563 36.1971Z" fill="#C87D5E"/>
<path d="M50.0109 43.8315L12.606 24.6474L5.41761 11.4586L15.9846 3.63904L35.8524 9.97748L59.5518 36.7743L50.0109 43.8315ZM14.6692 22.8395L50.4967 40.9346L57.0956 36.0501L35.0773 11.1591L16.2357 5.15286L8.2504 11.0611L14.6692 22.8395Z" fill="#AB664B"/>
<path d="M35.8524 9.97748L15.9846 3.63904L16.2248 5.16375L16.2357 5.15286L35.0773 11.1591L57.0956 36.0555L59.5518 36.7743L35.8524 9.97748Z" fill="#7A4631"/>
<path d="M20.9297 41.6534L21.2572 39.3119L19.2432 40.7386L16.061 39.1049L15.941 36.6327L14.0197 38.0594C13.6158 37.8525 13.1245 38.0104 12.9171 38.4134C12.7097 38.8163 12.868 39.3064 13.2719 39.5133L19.98 42.9548C20.1001 43.0147 20.2256 43.0474 20.3512 43.0474C20.6459 43.0474 20.9352 42.884 21.0826 42.6063C21.2518 42.2796 21.1754 41.8984 20.9297 41.6534Z" fill="#522F21"/>
<path d="M40.5573 51.6729L40.7211 49.168C40.7211 49.168 38.9308 50.4586 38.647 50.6927L30.3014 46.4127V44.0984C30.3014 44.0984 28.9587 45.0731 28.4456 45.4597L27.9653 45.2147C27.5614 45.0077 27.0702 45.1657 26.8628 45.5686C26.6554 45.9716 26.8136 46.4617 27.2176 46.6686L39.8096 53.1268C39.9296 53.1867 40.0552 53.2194 40.1807 53.2194C40.4755 53.2194 40.7647 53.056 40.9067 52.7783C41.1195 52.3754 40.9612 51.8798 40.5573 51.6729Z" fill="#522F21"/>
<path d="M28.4129 46.2929C28.2601 46.2929 28.1018 46.2493 27.9653 46.1567C27.5887 45.9117 27.6324 45.5741 27.878 45.1929L28.9478 43.5647C29.1934 43.189 29.6519 42.9875 30.0285 43.2325C30.4051 43.4776 30.416 43.9132 30.1704 44.289L29.1006 45.9171C28.9423 46.1622 28.6803 46.2929 28.4129 46.2929Z" fill="#E2A610"/>
<path d="M19.3141 41.637C19.1613 41.637 19.003 41.5935 18.8665 41.5009C18.4899 41.2559 18.5336 40.9183 18.7792 40.5371L19.849 38.9089C20.0946 38.5332 20.5531 38.3317 20.9297 38.5767C21.3063 38.8218 21.3173 39.2574 21.0716 39.6331L20.0018 41.2613C19.8381 41.5064 19.5761 41.637 19.3141 41.637Z" fill="#E2A610"/>
<path d="M14.0524 38.9361C13.8996 38.9361 13.7413 38.8926 13.6049 38.8C13.2283 38.5549 13.2719 38.2173 13.5175 37.8362L14.5873 36.208C14.833 35.8322 15.2914 35.6308 15.6681 35.8758C16.0447 36.1208 16.0556 36.5565 15.81 36.9322L14.7402 38.5604C14.5764 38.8054 14.3144 38.9361 14.0524 38.9361Z" fill="#E2A610"/>
<path d="M38.7943 51.5803C38.6415 51.5803 38.4832 51.5368 38.3468 51.4442C37.9702 51.1992 38.0138 50.8616 38.2594 50.4804L39.3292 48.8522C39.5749 48.4765 40.0333 48.275 40.41 48.52C40.7866 48.7651 40.7975 49.2007 40.5519 49.5764L39.4821 51.2046C39.3238 51.4496 39.0618 51.5803 38.7943 51.5803Z" fill="#E2A610"/>
<path d="M39.9078 52.1902C39.7823 52.1902 39.6513 52.163 39.5367 52.0977L26.9392 45.6394C26.5353 45.4325 26.377 44.9424 26.5844 44.5394C26.7918 44.1365 27.2831 43.9786 27.687 44.1855L40.279 50.6437C40.6829 50.8507 40.8412 51.3407 40.6337 51.7437C40.4918 52.0323 40.2025 52.1902 39.9078 52.1902Z" fill="#FFCA28"/>
<path d="M20.0783 42.0237C19.9487 42.0247 19.821 41.9929 19.7071 41.9311L12.999 38.4896C12.9031 38.4409 12.8178 38.3737 12.748 38.2919C12.6782 38.2102 12.6253 38.1155 12.5923 38.0132C12.5593 37.911 12.5469 37.8033 12.5559 37.6963C12.5648 37.5892 12.5948 37.485 12.6442 37.3896C12.8516 36.9867 13.3429 36.8288 13.7468 37.0357L20.4549 40.4772C20.8588 40.6841 21.0171 41.1742 20.8097 41.5771C20.6623 41.8603 20.3785 42.0237 20.0783 42.0237Z" fill="#FFCA28"/>
<path d="M5.41761 11.4586L15.9846 3.63904L16.2357 5.15286L8.2504 11.0611L14.6692 22.8395L12.606 24.6474L5.41761 11.4586Z" fill="#FFCC80"/>
<path d="M49.0666 47.823L10.39 28.2468C10.0461 28.0726 9.76231 27.7948 9.57673 27.4572L0.548916 10.9195C-0.0514829 11.9269 -0.253435 13.3591 0.445211 14.6496L8.32681 29.1126C8.51785 29.4611 8.80713 29.7443 9.16191 29.924L48.8756 50.0284C49.5469 50.3715 50.3548 50.3061 50.9606 49.8596V47.7522C50.382 48.1007 49.667 48.1334 49.0666 47.823Z" fill="#AB664B"/>
<path d="M9.58219 27.4572L0.548916 10.9141C-0.0514829 11.9215 -0.253435 13.3536 0.445211 14.6496L8.32681 29.1126C8.51785 29.4611 8.80713 29.7443 9.16191 29.924C9.16191 29.924 8.66522 28.579 9.99701 27.9636C9.82781 27.8221 9.6859 27.6533 9.58219 27.4572Z" fill="#FFCC80"/>
<path d="M64.617 37.5149C64.5242 37.6946 64.3932 37.847 64.224 37.9668L51.0971 47.6597C50.8187 47.8666 50.4967 47.9864 50.1637 48.0245C50.1146 48.0626 50.06 48.1062 50.0163 48.1389C50.8023 48.6453 50.5349 50.0175 50.2128 50.2027C50.4748 50.1428 50.7259 50.0284 50.9552 49.865L64.4368 39.9109C65.0864 39.4262 65.201 38.4569 64.617 37.5149Z" fill="#874D36"/>
</svg>
