<?xml version="1.0" encoding="iso-8859-1"?>
<!-- Generator: Adobe Illustrator 19.0.0, SVG Export Plug-In . SVG Version: 6.00 Build 0)  -->
<svg version="1.1" id="Layer_1" xmlns="http://www.w3.org/2000/svg" xmlns:xlink="http://www.w3.org/1999/xlink" x="0px" y="0px"
	 viewBox="0 0 274.786 274.786" style="enable-background:new 0 0 274.786 274.786;" xml:space="preserve">
<g>
	<path style="fill:#1D1D1B;" d="M147.979,150.747c47.741,5.385,42.918,80.211,41.954,115.735c0,0.723-0.362,1.246-0.804,1.567
		c0.08,1.005-0.522,2.09-1.808,2.21c-29.416,2.893-70.124,9.524-98.374-2.049c-0.322-0.121-0.522-0.322-0.643-0.563
		c-0.764,0.442-2.009,0.04-2.17-1.165c-4.501-38.257-4.3-101.589,40.467-113.967c0-0.04-0.04-0.04-0.04-0.04
		c-0.121-30.621-1.889-61.846,0.482-92.387c-9.122-0.201-18.204-0.643-27.206-1.527c-0.804-0.08-1.165-0.723-1.085-1.286
		c-2.331-1.728-3.255-5.023-3.416-8.72c-0.442-12.659,0.924-25.518,0.603-38.217c0-0.884,0.482-1.406,1.085-1.607
		c0.241-3.697,2.692-5.546,7.836-6.59c21.258-4.219,47.941-1.326,69.32,1.206c0.603,0.08,1.005,0.362,1.286,0.723
		c0.723-0.362,1.728-0.322,2.371,0.522c6.832,9.082,4.139,27.045,4.139,37.775c0,5.787,0.603,15.11-5.947,16.476
		c-0.121,0.884-0.723,1.648-1.849,1.607c-8.801-0.121-17.641-0.121-26.522-0.161c0,0.08,0.08,0.121,0.08,0.241
		C149.024,90.548,148.22,120.728,147.979,150.747z M185.794,266.481c0.964-37.694,7.434-122.365-53.608-110.993
		c-48.584,9.042-44.807,72.334-43.28,110.43c0.201-0.04,0.402-0.04,0.643,0.04c29.054,8.881,66.226,3.295,96.245,0.603
		C185.794,266.522,185.794,266.522,185.794,266.481z M174.662,56.592c7.555-5.706,4.3-43.481,0.322-49.951
		c-0.201,0.08-0.482,0.161-0.804,0.161c-12.498-0.643-24.955-1.607-37.533-1.768c-7.475-0.08-36.73-3.938-37.132,8.519
		c0.201,6.028,0.241,12.056,0.08,18.124c-0.121,5.425-3.215,20.012,2.773,24.393c23.71-1.447,48.062,0.08,71.812,0.402
		C174.341,56.471,174.501,56.551,174.662,56.592z M145.527,60.53c0-0.12,0.08-0.161,0.121-0.241
		c-5.706-0.04-11.373-0.04-17.039-0.161c2.612,30.26,1.125,61.203,1.206,91.583c1.607-0.362,3.295-0.643,4.983-0.844
		c3.376-0.442,6.47-0.522,9.444-0.402C144.322,120.527,143.88,90.428,145.527,60.53z"/>
	<path style="fill:#E94B59;" d="M132.186,155.489c61.042-11.373,54.572,73.299,53.608,110.993c0,0.04,0,0.04,0,0.08
		c-30.019,2.692-67.191,8.278-96.245-0.603c-0.241-0.08-0.442-0.08-0.643-0.04C87.379,227.823,83.601,164.53,132.186,155.489z
		 M181.212,259.208c0.683-3.858,0.924-7.876,0.964-11.815c0-0.964-1.567-1.246-1.768-0.241c-0.643,3.898-1.125,7.876-1.165,11.815
		C179.243,260.052,181.011,260.333,181.212,259.208z M178.6,254.667c0.402-2.532,0.402-4.983,0.04-7.555
		c-0.161-1.085-2.049-0.844-1.929,0.281c0.241,2.331,0.281,4.702,0.04,7.033C176.631,255.47,178.44,255.752,178.6,254.667z
		 M166.946,175.742c1.808,0.924,3.215-1.527,1.567-2.693c-18.365-12.859-43.923-10.971-58.952,6.389
		c-17.521,20.254-14.547,59.877-10.609,84.269c0.121,0.844,1.407,0.603,1.407-0.161c0.723-20.213-1.808-41.673,2.693-61.524
		C110.204,170.558,139.62,162.119,166.946,175.742z M146.612,200.175c0.04-2.17,0.04-4.34-0.04-6.51
		c-0.04-1.326-2.009-1.326-2.049,0c-0.08,2.17-0.08,4.34-0.04,6.51C144.483,201.541,146.612,201.541,146.612,200.175z
		 M132.387,264.673c0.844-0.603,0.121-1.969-0.804-1.407c-3.255,1.969-6.912,2.371-10.408,0.884
		c-0.804-0.321-1.407,1.045-0.603,1.407C124.43,267.406,128.891,267.245,132.387,264.673z M111.771,218.5
		c0.362-1.005-1.125-1.607-1.688-0.723c-1.929,3.135-2.451,6.912-2.09,10.529c0.08,1.125,1.728,1.165,1.768,0
		C109.843,224.849,110.767,221.755,111.771,218.5z M106.588,226.497c0.161-0.884-1.085-1.246-1.366-0.362
		c-0.924,2.733-0.884,5.626-0.241,8.439c0.201,0.924,1.567,0.522,1.407-0.402C105.985,231.56,106.105,229.068,106.588,226.497z"/>
	<path style="fill:#1D1D1B;" d="M182.177,247.393c-0.04,3.938-0.281,7.957-0.964,11.815c-0.201,1.125-1.969,0.844-1.969-0.241
		c0.04-3.938,0.522-7.917,1.165-11.815C180.61,246.147,182.177,246.429,182.177,247.393z"/>
	<path style="fill:#1D1D1B;" d="M178.64,247.112c0.362,2.572,0.362,5.023-0.04,7.555c-0.161,1.085-1.969,0.804-1.849-0.241
		c0.241-2.331,0.201-4.702-0.04-7.033C176.591,246.268,178.48,246.027,178.64,247.112z"/>
	<path style="fill:#1D1D1B;" d="M176.953,38.709c0.804,3.215,0.04,6.349-1.527,9.203c-0.563,0.964-2.009,0.08-1.487-0.884
		c1.286-2.572,1.567-5.264,1.527-8.118C175.466,38.066,176.752,37.865,176.953,38.709z"/>
	<path style="fill:#E94B59;" d="M174.984,6.641c3.978,6.47,7.233,44.244-0.322,49.951c-0.161-0.04-0.322-0.121-0.482-0.121
		c-23.75-0.321-48.102-1.849-71.812-0.402c-5.988-4.38-2.893-18.968-2.773-24.393c0.161-6.068,0.12-12.096-0.08-18.124
		c0.402-12.458,29.657-8.6,37.132-8.519c12.578,0.161,25.036,1.125,37.533,1.768C174.501,6.802,174.783,6.721,174.984,6.641z
		 M175.426,47.911c1.567-2.853,2.331-5.988,1.527-9.203c-0.201-0.844-1.487-0.643-1.487,0.201c0.04,2.853-0.241,5.546-1.527,8.118
		C173.416,47.992,174.863,48.876,175.426,47.911z M174.943,33.927c0.04-0.964-1.366-0.924-1.447,0
		c-0.281,2.331-0.442,4.662-0.563,6.992c-0.08,0.965,1.366,0.924,1.447,0C174.622,38.588,174.823,36.258,174.943,33.927z
		 M170.603,46.465c0.522-10.85,0.201-21.821-0.241-32.631c-0.08-1.447-1.447-1.969-2.492-1.607
		c-0.201-0.121-0.442-0.201-0.763-0.241c-19.53-1.406-39.744-1.969-59.194,0.563c-0.563,0.08-0.844,0.442-0.964,0.844
		c-0.321,0.161-0.603,0.402-0.643,0.924c-0.965,10.931-0.402,22.745,0.643,33.635c0.08,0.723,0.683,1.045,1.206,0.965
		c0.201,0.161,0.402,0.321,0.723,0.321c19.932,0.12,39.864-0.764,59.756-1.005c0.723,0,1.165-0.362,1.447-0.804
		C170.362,47.228,170.603,46.947,170.603,46.465z M105.261,50.845c0.482,0.643,1.487,0.08,1.085-0.643
		c-1.688-3.094-2.09-6.631-1.165-10.046c0.281-1.005-1.206-1.406-1.567-0.442C102.207,43.531,102.81,47.59,105.261,50.845z"/>
	<path style="fill:#1D1D1B;" d="M173.497,33.927c0.08-0.924,1.487-0.964,1.447,0c-0.12,2.331-0.322,4.662-0.563,6.992
		c-0.08,0.924-1.527,0.965-1.447,0C173.055,38.588,173.215,36.258,173.497,33.927z"/>
	<path style="fill:#1D1D1B;" d="M170.362,13.834c0.442,10.81,0.764,21.781,0.241,32.631c0,0.482-0.241,0.764-0.522,0.965
		c-0.281,0.442-0.723,0.804-1.447,0.804c-19.892,0.241-39.824,1.125-59.756,1.005c-0.322,0-0.522-0.161-0.723-0.321
		c-0.522,0.08-1.125-0.241-1.206-0.965c-1.045-10.89-1.607-22.705-0.643-33.635c0.04-0.522,0.322-0.764,0.643-0.924
		c0.12-0.402,0.402-0.764,0.964-0.844c19.45-2.532,39.663-1.969,59.194-0.563c0.322,0.04,0.563,0.121,0.763,0.241
		C168.916,11.865,170.282,12.387,170.362,13.834z M168.031,44.656c-1.045-9.725-1.286-19.611-1.206-29.416
		c-19.49-1.045-38.739-0.482-58.229-0.482c1.246,10.328,1.125,21.459,0.482,31.907C128.69,45.34,148.421,45.179,168.031,44.656z"/>
	<path style="fill:#1D1D1B;" d="M168.514,173.05c1.648,1.165,0.241,3.617-1.567,2.693c-27.326-13.623-56.742-5.184-63.895,26.281
		c-4.501,19.852-1.969,41.311-2.693,61.524c0,0.763-1.286,1.005-1.407,0.161c-3.938-24.393-6.912-64.016,10.609-84.269
		C124.591,162.079,150.149,160.19,168.514,173.05z"/>
	<path style="fill:#1D1D1B;" d="M146.572,193.665c0.08,2.17,0.08,4.34,0.04,6.51c0,1.366-2.13,1.366-2.13,0
		c-0.04-2.17-0.04-4.34,0.04-6.51C144.563,192.339,146.532,192.339,146.572,193.665z"/>
	<path style="fill:#E94B59;" d="M145.648,60.289c-0.04,0.08-0.121,0.121-0.121,0.241c-1.648,29.898-1.206,59.997-1.286,89.936
		c-2.974-0.121-6.068-0.04-9.444,0.402c-1.688,0.201-3.376,0.482-4.983,0.844c-0.08-30.38,1.406-61.323-1.206-91.583
		C134.275,60.248,139.942,60.248,145.648,60.289z M140.826,87.454c0.241,1.407,2.331,0.804,2.13-0.563
		c-0.402-2.733-0.402-5.505-0.442-8.278c0-1.045-1.688-1.326-1.849-0.241C140.102,81.426,140.303,84.4,140.826,87.454z
		 M137.289,133.346c0.08,0.964,1.608,1.005,1.527,0c-0.121-2.331-0.281-4.662-0.563-7.032c-0.08-0.884-1.447-0.924-1.447,0
		C136.888,128.685,137.088,131.015,137.289,133.346z M132.829,136.36c0.08,0.924,1.527,0.965,1.447,0
		c-0.12-2.371-0.161-4.822-0.643-7.193c-0.161-0.764-1.286-0.563-1.326,0.201C132.226,131.699,132.588,134.029,132.829,136.36z"/>
	<path style="fill:#1D1D1B;" d="M142.956,86.892c0.201,1.366-1.889,1.969-2.13,0.563c-0.522-3.054-0.723-6.028-0.161-9.082
		c0.161-1.085,1.849-0.804,1.849,0.241C142.554,81.386,142.554,84.159,142.956,86.892z"/>
	<path style="fill:#1D1D1B;" d="M138.816,133.346c0.08,1.005-1.447,0.964-1.527,0c-0.201-2.331-0.402-4.662-0.482-7.032
		c0-0.924,1.366-0.884,1.447,0C138.535,128.685,138.696,131.015,138.816,133.346z"/>
	<path style="fill:#1D1D1B;" d="M134.275,136.36c0.08,0.965-1.366,0.924-1.447,0c-0.241-2.331-0.603-4.661-0.522-6.992
		c0.04-0.764,1.165-0.965,1.326-0.201C134.115,131.538,134.155,133.989,134.275,136.36z"/>
	<path style="fill:#1D1D1B;" d="M131.583,263.267c0.924-0.563,1.648,0.804,0.804,1.407c-3.496,2.572-7.957,2.733-11.815,0.884
		c-0.804-0.362-0.201-1.728,0.603-1.407C124.671,265.637,128.328,265.236,131.583,263.267z"/>
	<path style="fill:#1D1D1B;" d="M110.084,217.776c0.563-0.884,2.049-0.281,1.688,0.723c-1.005,3.255-1.929,6.349-2.009,9.805
		c-0.04,1.165-1.688,1.125-1.768,0C107.632,224.688,108.155,220.911,110.084,217.776z"/>
	<path style="fill:#1D1D1B;" d="M105.221,226.135c0.281-0.884,1.527-0.522,1.366,0.362c-0.482,2.572-0.603,5.063-0.201,7.675
		c0.161,0.924-1.206,1.326-1.407,0.402C104.337,231.761,104.297,228.868,105.221,226.135z"/>
	<path style="fill:#1D1D1B;" d="M106.346,50.202c0.402,0.723-0.603,1.286-1.085,0.643c-2.451-3.255-3.054-7.314-1.648-11.131
		c0.362-0.964,1.848-0.563,1.567,0.442C104.257,43.571,104.659,47.108,106.346,50.202z"/>
</g>
<g>
</g>
<g>
</g>
<g>
</g>
<g>
</g>
<g>
</g>
<g>
</g>
<g>
</g>
<g>
</g>
<g>
</g>
<g>
</g>
<g>
</g>
<g>
</g>
<g>
</g>
<g>
</g>
<g>
</g>
</svg>
