<svg width="28" height="32" viewBox="0 0 28 32" fill="none" xmlns="http://www.w3.org/2000/svg">
<path d="M14 0C9.75739 0 5.76446 4.0255 7.26193 11.781C7.55895 13.3213 8.35917 15.0474 9.44963 16.8247C10.8132 15.5214 12.1425 14.1667 13.3116 12.8349C12.9364 12.3869 12.5822 11.9419 12.2529 11.5036C9.54199 7.89263 10.0071 3.47138 14 3.47138C17.9929 3.47138 18.458 7.89269 15.7466 11.5037C10.7565 18.1514 0 26.2759 0 26.2759L5.01552 32C5.01552 32 19.2402 19.5366 20.7377 11.781C22.235 4.0255 18.2421 0 14 0Z" fill="white"/>
<path d="M18.7326 18.4551C17.6597 20.0736 16.3123 21.8236 14.6952 23.6997C18.7746 28.3119 22.984 32 22.984 32L28 26.2759C28 26.2759 23.3412 22.7564 18.7326 18.4551Z" fill="white"/>
</svg>
